{"glyphs":{"0":{"ha":729,"x_min":-10,"x_max":753,"o":"m 406 868 q 541 834 478 868 q 651 742 604 800 q 726 604 699 683 q 753 436 753 525 q 724 260 753 339 q 643 124 696 181 q 517 35 590 67 q 354 4 443 4 l 346 4 q 198 36 264 6 q 86 123 132 67 q 15 258 40 179 q -10 436 -10 338 q 27 628 -10 547 q 123 763 64 710 q 256 842 182 817 q 406 868 331 868 m 354 200 q 463 227 422 200 q 524 292 503 254 q 551 369 544 329 q 557 436 557 410 q 544 526 557 483 q 511 601 532 569 q 463 653 490 633 q 406 672 436 672 q 356 667 392 672 q 281 638 319 661 q 214 568 243 615 q 185 436 185 521 q 349 200 185 203 l 354 200 z "},"1":{"ha":696,"x_min":-67,"x_max":733,"o":"m 631 243 q 672 233 653 242 q 704 208 690 224 q 726 174 718 193 q 732 132 733 154 q 697 60 729 89 q 621 33 665 31 q 498 28 575 35 q 339 9 421 21 q 183 -15 257 -3 q 67 -35 108 -26 q 55 -36 60 -36 q 46 -36 50 -36 q -21 -12 8 -36 q -60 50 -50 13 q -42 129 -67 94 q 26 172 -17 164 q 100 185 42 175 q 239 207 158 196 q 255 378 243 281 q 279 571 267 475 q 201 533 239 547 q 125 503 163 518 q 44 505 85 488 q -10 565 4 522 q -8 645 -25 606 q 51 700 10 685 q 132 732 94 717 q 204 769 169 747 q 272 824 239 792 q 339 907 306 857 q 394 948 358 938 q 464 946 429 958 q 517 899 499 931 q 531 832 535 868 q 513 712 524 786 q 490 553 501 638 q 469 384 479 468 q 453 235 458 300 q 550 242 504 239 q 631 243 596 246 z "},"2":{"ha":690,"x_min":-51,"x_max":739,"o":"m 701 290 q 727 258 718 276 q 738 219 736 239 q 733 181 739 200 q 713 146 726 161 q 415 -6 585 3 l 392 -6 q 240 19 311 -6 q 114 76 168 44 q 26 134 60 107 q -10 164 -7 161 q -40 209 -32 183 q -40 263 -47 235 q -15 310 -33 290 q 32 339 4 331 q 162 385 90 356 q 299 449 233 414 q 414 522 364 483 q 479 596 464 560 q 483 614 483 606 q 475 638 482 622 q 438 677 460 664 q 393 695 417 690 q 348 699 369 700 q 313 696 326 697 q 210 653 251 683 q 167 594 169 622 q 126 526 160 551 q 49 506 92 500 q -21 545 6 511 q -40 624 -47 579 q -33 722 -31 693 q -40 768 -35 751 q -41 775 -40 772 q -43 781 -42 778 q -28 858 -51 822 q 36 904 -6 894 q 101 899 71 913 q 147 857 132 885 q 208 882 176 871 q 275 899 240 893 q 395 904 338 910 q 502 877 453 899 q 592 820 551 856 q 658 736 632 785 q 668 514 715 628 q 608 421 647 464 q 518 340 568 378 q 412 272 468 303 q 301 218 356 242 q 352 205 326 210 q 404 201 378 200 q 556 283 490 208 q 627 317 585 315 q 701 290 669 319 z "},"3":{"ha":764,"x_min":-24,"x_max":814,"o":"m 656 392 q 736 288 703 343 q 774 175 769 233 q 764 111 775 143 q 726 50 753 79 q 653 -1 699 21 q 540 -33 608 -24 q 494 -38 517 -36 q 449 -40 472 -40 q 226 0 332 -40 q 205 8 215 3 q 183 18 194 13 q 110 -11 154 -11 q 35 19 65 -11 q 4 94 4 50 q 2 128 4 107 q -3 173 0 149 q -10 221 -7 197 q -17 263 -14 244 q 1 340 -24 304 q 68 383 25 375 q 145 369 110 392 q 192 306 181 346 q 244 230 204 256 q 321 192 283 204 q 390 176 356 181 q 455 172 425 172 q 510 176 485 172 q 550 186 535 181 q 516 231 539 206 q 462 282 493 256 q 394 334 431 308 q 319 382 357 360 q 273 437 286 401 q 272 508 260 472 q 317 565 285 544 q 389 578 350 585 q 474 571 431 571 q 546 578 518 571 q 538 591 543 583 q 526 607 533 599 q 488 649 506 633 q 456 671 471 664 q 431 680 442 678 q 415 683 421 682 l 410 683 q 360 673 385 683 q 313 649 335 663 q 276 621 292 635 q 254 600 260 607 q 190 565 229 571 q 119 582 151 560 q 76 641 88 604 q 79 714 64 678 q 105 778 94 744 q 118 825 115 813 q 149 899 119 869 q 224 929 179 929 q 276 916 253 929 q 313 879 300 903 q 367 891 339 888 q 422 894 394 894 q 483 886 450 893 q 552 861 517 879 q 624 813 588 843 q 696 735 660 782 q 744 468 814 581 q 706 422 729 440 q 656 392 683 403 z "},"4":{"ha":710,"x_min":-46,"x_max":750,"o":"m 661 317 q 704 294 685 310 q 732 254 724 279 q 735 176 750 215 q 682 117 719 136 q 685 94 685 103 q 688 79 686 85 q 672 -1 697 35 q 604 -47 647 -37 q 592 -49 597 -49 q 582 -50 588 -50 q 516 -26 546 -50 q 478 38 486 -3 q 476 44 476 39 q 458 40 468 42 q 438 35 449 38 q 191 1 290 -4 q 31 57 92 7 q 2 84 18 67 q -25 128 -14 101 q -41 189 -36 154 q -37 269 -46 224 q 3 400 -25 336 q 65 520 31 464 q 134 622 99 576 q 197 700 169 668 q 271 779 231 739 q 353 851 311 819 q 438 901 396 882 q 518 917 481 919 q 599 875 567 911 q 632 789 632 839 q 634 713 632 764 q 640 596 636 661 q 650 458 644 531 q 661 317 656 385 m 396 244 q 424 253 410 249 q 451 261 438 257 q 444 352 447 304 q 437 448 440 400 q 430 542 433 496 q 425 628 426 588 q 349 544 389 592 q 272 445 308 497 q 209 338 236 393 q 172 231 182 282 l 172 219 q 243 216 190 214 q 396 244 296 218 z "},"5":{"ha":696,"x_min":-82,"x_max":722,"o":"m 608 540 q 648 503 628 525 q 685 452 668 482 q 712 383 701 422 q 722 296 722 344 q 704 203 722 249 q 653 120 686 158 q 575 51 621 82 q 474 1 529 21 q 333 -22 403 -22 q 200 0 264 -21 q 129 -28 172 -28 q 119 -26 122 -28 q 48 8 76 -24 q 21 83 19 40 q 14 117 21 94 q 0 161 7 140 q -1 237 -15 199 q 46 293 13 275 q 121 304 82 313 q 185 264 160 296 q 247 211 214 226 q 312 193 281 196 q 368 195 343 190 q 404 204 393 200 q 481 249 453 221 q 510 296 510 276 q 500 346 510 329 q 479 372 490 363 q 406 401 453 393 q 306 407 360 408 q 199 398 253 406 q 106 379 146 390 q 35 384 69 368 q -17 433 0 400 q -40 481 -24 446 q -67 565 -56 517 q -81 669 -79 614 q -61 776 -82 725 q -5 856 -42 824 q 83 904 32 889 q 203 926 144 924 q 317 917 263 928 q 356 956 332 940 q 410 971 381 971 q 479 946 450 971 q 515 882 508 921 q 536 853 522 871 q 563 824 550 836 q 594 757 592 796 q 574 686 597 718 q 510 644 550 653 q 438 656 471 636 q 388 678 421 665 q 315 701 356 692 q 231 713 275 711 q 146 703 186 715 q 135 694 136 699 q 133 658 131 683 q 143 606 136 633 q 249 619 189 614 q 373 619 310 624 q 498 596 436 614 q 608 540 560 578 z "},"6":{"ha":754,"x_min":-32,"x_max":779,"o":"m 524 646 q 631 603 582 635 q 713 526 679 572 q 763 421 746 479 q 774 297 779 363 q 741 177 768 232 q 670 83 714 122 q 568 22 626 43 q 442 0 510 0 q 244 33 332 0 q 95 128 157 67 q 1 278 33 190 q -32 478 -32 367 q 5 663 -32 575 q 108 815 42 751 q 167 861 133 838 q 245 903 200 885 q 346 931 290 921 q 469 936 401 940 q 542 901 513 933 q 569 824 571 868 q 559 784 568 803 q 535 751 550 765 q 499 731 519 738 q 457 724 479 724 q 257 660 329 732 q 215 607 231 639 q 351 647 274 633 q 524 646 428 661 m 561 315 q 559 351 563 332 q 547 388 556 369 q 524 418 539 406 q 489 435 510 431 q 376 435 426 444 q 292 408 326 425 q 240 376 258 392 q 221 361 221 361 q 213 353 217 357 q 203 344 208 349 q 256 268 224 294 q 324 229 289 242 q 390 215 358 217 q 442 213 422 213 q 501 223 478 213 q 537 249 524 233 q 555 283 550 265 q 561 315 560 300 z "},"7":{"ha":671,"x_min":-82,"x_max":717,"o":"m 660 433 q 693 403 681 421 q 711 364 706 385 q 713 321 717 343 q 697 279 710 299 q 656 240 682 254 q 601 225 629 225 q 564 232 585 225 q 525 157 544 192 q 488 93 506 122 q 458 42 471 64 q 436 8 444 21 q 394 -29 419 -17 q 342 -42 369 -42 q 281 -24 308 -42 q 232 47 242 1 q 249 132 222 93 q 289 197 268 163 q 331 269 310 232 q 265 303 292 276 q 233 368 238 329 q 237 412 231 390 q 256 451 243 433 q 288 479 269 468 q 331 493 307 490 q 364 497 338 494 q 431 496 390 499 q 456 590 449 547 q 456 661 463 633 q 450 672 453 669 q 444 676 447 674 q 324 709 382 706 q 219 703 267 713 q 140 678 172 693 q 96 657 107 664 q 10 645 56 633 q -58 697 -35 657 q -70 783 -82 738 q -19 851 -58 828 q 97 904 32 882 q 235 933 163 926 q 387 928 308 940 q 543 878 465 915 q 624 814 592 854 q 672 721 657 774 q 681 588 689 660 q 650 442 672 517 q 660 433 653 436 z "},"8":{"ha":719,"x_min":-42,"x_max":751,"o":"m 619 547 q 740 363 718 485 q 737 236 751 296 q 682 128 722 176 q 545 32 629 65 q 353 -1 461 -1 q 164 33 249 -1 q 26 132 79 68 q -27 240 -12 181 q -28 361 -42 299 q 10 454 -18 408 q 90 536 39 500 q 35 701 35 611 q 51 791 35 746 q 106 873 68 836 q 204 933 143 910 q 353 957 265 957 q 492 935 433 957 q 590 876 551 913 q 648 795 629 840 q 667 704 667 750 q 619 547 667 622 m 353 739 q 328 738 344 739 q 294 733 311 738 q 265 722 278 729 q 253 701 253 714 q 279 653 253 669 q 353 636 306 636 q 449 704 449 636 q 425 728 449 717 q 353 739 401 739 m 515 267 q 526 287 522 274 q 526 324 531 300 q 520 343 525 332 q 499 365 515 354 q 447 383 482 375 q 353 390 413 390 q 230 367 268 390 q 185 317 192 343 q 196 269 179 290 q 251 233 211 250 q 353 215 290 215 q 460 231 419 215 q 515 267 500 247 z "},"9":{"ha":657,"x_min":-57,"x_max":722,"o":"m 676 626 q 569 165 722 339 q 462 77 519 110 q 349 28 404 44 q 245 6 293 11 q 168 1 197 1 q 160 2 164 1 q 151 3 156 3 q 77 35 107 4 q 49 111 47 67 q 83 186 51 156 q 160 215 115 217 q 223 218 189 214 q 291 233 257 222 q 356 263 325 244 q 410 308 386 281 q 425 326 418 317 q 438 347 432 335 q 238 328 333 319 q 71 381 142 336 q -26 488 6 424 q -50 632 -57 553 q -17 760 -43 703 q 49 860 8 818 q 144 925 89 901 q 264 951 199 949 q 398 931 329 953 q 525 867 467 910 q 624 764 583 825 q 676 626 665 703 m 186 560 q 301 538 224 536 q 468 581 378 540 q 467 588 468 583 q 467 596 467 593 q 443 653 463 626 q 397 698 424 679 q 339 727 371 717 q 278 738 307 738 l 271 738 q 161 613 171 735 q 166 578 160 589 q 186 560 172 568 z "},"B":{"ha":725,"x_min":-10,"x_max":758,"o":"m 626 481 q 703 409 671 453 q 746 306 736 365 q 728 158 758 225 q 626 50 697 90 q 422 0 540 0 q 236 31 331 0 q 67 119 142 61 q 29 186 33 146 q 50 260 25 226 q 101 294 71 286 q 163 292 132 303 q 146 380 153 335 q 134 469 139 425 q 128 556 129 514 q 128 633 126 597 q 54 640 90 622 q 6 694 18 657 q 8 771 -10 735 q 64 821 25 807 q 98 833 72 824 q 161 850 124 842 q 245 865 199 858 q 341 872 292 872 q 439 860 390 871 q 529 825 488 850 q 613 744 581 793 q 653 631 644 694 q 651 544 660 582 q 626 481 642 507 m 428 656 q 384 669 408 665 q 332 672 360 672 q 326 621 326 651 q 329 556 326 590 q 350 556 340 556 q 371 554 360 556 q 421 563 399 557 q 453 579 443 569 q 456 585 454 581 q 457 601 458 589 q 444 638 451 626 q 428 656 436 649 m 526 221 q 547 242 542 231 q 549 274 551 254 q 529 306 546 292 q 488 329 513 319 q 432 345 463 339 q 371 354 401 351 l 354 354 q 376 261 364 301 q 400 201 388 221 q 403 200 400 201 q 472 202 439 197 q 526 221 504 207 z "},"C":{"ha":681,"x_min":-10,"x_max":694,"o":"m 610 403 q 647 389 631 400 q 675 361 664 378 q 690 326 686 344 q 693 292 694 308 q 669 204 689 254 q 608 109 649 154 q 506 33 568 64 q 357 1 444 1 l 350 1 q 169 62 249 3 q 42 226 89 121 q 1 370 13 294 q -3 517 -10 446 q 29 653 4 589 q 96 763 54 717 q 224 856 153 828 q 375 869 296 883 q 428 857 403 867 q 481 832 454 847 q 531 868 500 858 q 593 867 561 878 q 650 816 632 853 q 656 740 668 779 q 652 717 651 732 q 656 685 653 701 q 663 651 658 668 q 674 622 668 635 q 674 546 689 583 q 621 492 658 508 q 581 484 601 483 q 544 492 561 485 q 513 512 526 499 q 490 543 499 525 q 463 590 479 568 q 426 630 446 613 q 385 659 407 647 q 343 674 364 671 q 299 672 324 676 q 244 631 275 667 q 210 567 222 606 q 194 485 197 529 q 199 394 192 440 q 224 306 207 347 q 244 269 232 288 q 271 236 256 251 q 307 210 286 221 q 353 200 328 200 l 357 200 q 424 214 399 200 q 465 247 450 228 q 487 286 481 267 q 496 317 493 306 l 496 318 q 505 349 499 333 q 524 378 511 365 q 557 399 536 392 q 610 403 578 406 z "},"D":{"ha":764,"x_min":-10,"x_max":785,"o":"m 569 804 q 768 450 731 701 q 747 244 785 338 q 621 89 710 151 q 480 23 558 44 q 321 1 401 1 q 198 15 258 1 q 88 56 138 28 q 40 115 51 75 q 50 190 29 154 q 103 237 68 225 q 174 233 138 249 q 152 332 161 281 q 137 435 143 383 q 128 537 131 488 q 126 628 125 586 q 117 626 121 628 q 42 641 76 619 q -1 703 7 663 q 13 778 -10 743 q 76 821 36 813 q 87 824 79 822 q 103 828 94 826 q 190 850 136 838 q 306 866 243 863 q 438 858 369 869 q 569 804 506 846 m 507 251 q 572 419 589 307 q 463 639 547 582 q 399 664 433 658 q 329 669 365 669 q 326 561 322 628 q 339 425 329 494 q 363 295 349 356 q 393 207 378 235 q 454 224 425 214 q 507 251 483 235 z "},"E":{"ha":667,"x_min":0,"x_max":692,"o":"m 596 483 q 665 450 638 481 q 689 378 692 419 q 650 214 683 285 q 565 96 617 143 q 450 25 514 49 q 322 1 386 1 l 311 1 q 188 27 244 3 q 89 93 131 51 q 24 191 47 135 q 0 313 0 247 q 15 396 0 360 q 56 458 29 432 q 36 514 40 485 q 34 572 32 543 q 43 631 36 601 q 58 685 50 660 q 93 764 72 732 q 137 817 114 796 q 183 849 160 838 q 228 865 207 860 q 326 866 276 876 q 421 832 375 856 q 454 876 431 860 q 510 892 478 892 q 579 863 550 892 q 608 793 608 833 q 611 755 608 776 q 617 713 614 733 q 624 674 621 692 q 631 647 628 657 q 626 585 639 615 q 583 539 613 554 q 522 526 556 521 q 465 556 489 532 q 412 603 440 581 q 356 643 383 626 q 307 668 329 660 q 272 674 285 676 q 246 628 258 671 q 232 572 235 592 q 259 572 244 571 q 288 572 274 572 q 318 574 303 574 q 351 574 333 574 q 419 546 392 574 q 449 478 447 518 q 422 408 450 438 q 356 378 394 379 q 304 371 332 376 q 252 356 276 365 q 212 336 228 347 q 196 313 196 325 q 207 260 196 282 q 235 225 218 239 q 275 204 253 211 q 318 197 297 197 q 376 206 346 197 q 431 238 406 215 q 473 299 456 261 q 493 390 490 336 q 526 459 496 432 q 596 483 556 486 z "},"F":{"ha":593,"x_min":-24,"x_max":606,"o":"m 574 790 q 576 753 574 774 q 583 713 579 732 q 590 679 586 694 q 596 656 593 664 q 592 593 606 624 q 551 544 579 563 q 488 533 521 528 q 432 561 456 538 q 383 604 410 583 q 328 641 356 625 q 278 666 301 657 q 240 671 254 675 q 213 624 226 668 q 203 590 206 604 q 199 568 201 576 q 225 567 210 567 q 253 568 240 568 q 265 569 260 568 q 278 569 271 569 q 311 572 297 572 q 328 569 325 571 q 392 535 367 565 q 415 467 417 506 q 385 401 413 428 q 317 374 357 374 l 290 374 q 260 366 276 371 q 232 346 244 361 q 200 258 206 317 q 210 117 194 199 q 194 43 217 76 q 131 3 171 10 q 113 1 124 1 q 50 24 76 1 q 17 82 24 46 q 49 424 -24 294 q 35 439 43 428 q 7 496 14 465 q 1 558 0 526 q 9 621 1 589 q 25 681 17 653 q 60 760 39 728 q 103 813 81 792 q 150 845 126 833 q 194 863 174 857 q 293 863 243 874 q 388 833 343 853 q 423 872 399 857 q 475 888 447 888 q 545 859 517 888 q 574 790 574 831 z "},"G":{"ha":686,"x_min":-11,"x_max":689,"o":"m 590 454 q 658 428 629 454 q 689 363 686 401 q 689 328 689 356 q 681 263 689 301 q 653 181 672 225 q 597 99 635 138 q 559 65 582 82 q 506 33 536 47 q 435 10 475 19 q 347 1 396 1 q 169 58 247 1 q 43 219 90 115 q 1 363 13 288 q -4 511 -11 439 q 27 648 3 583 q 93 758 51 713 q 223 851 151 824 q 371 867 294 879 q 478 829 428 858 q 527 863 497 853 q 589 861 557 872 q 645 811 628 847 q 650 736 663 775 q 646 709 646 725 q 648 676 646 693 q 653 645 650 660 q 660 622 657 631 q 657 549 674 585 q 604 497 640 513 q 531 497 568 482 q 476 550 493 513 q 418 632 456 599 q 342 671 381 665 q 304 670 331 674 q 242 626 278 667 q 207 563 219 601 q 192 479 194 524 q 198 388 190 435 q 224 300 206 340 q 243 264 232 282 q 269 231 254 246 q 304 208 285 217 q 347 199 324 199 q 454 235 421 199 q 463 244 458 239 q 469 256 467 250 l 404 256 q 334 284 363 256 q 304 353 306 313 q 333 424 304 394 q 403 453 361 453 l 589 454 l 590 454 l 590 454 z "},"H":{"ha":690,"x_min":-11,"x_max":740,"o":"m 678 397 q 724 349 708 382 q 729 282 740 317 q 689 225 718 244 q 692 133 692 176 q 689 56 692 89 q 658 -10 686 15 q 590 -36 629 -36 l 582 -36 q 515 -1 542 -32 q 490 71 488 31 q 490 238 497 136 q 368 256 429 249 q 251 264 307 264 q 271 197 261 228 q 292 146 281 167 q 298 70 310 110 q 250 13 286 31 q 204 1 228 1 q 153 15 176 1 q 117 56 129 29 q 81 143 97 92 q 51 257 64 194 q 18 281 32 265 q -3 319 4 297 q -3 374 -11 347 q 24 419 4 400 q 10 530 15 475 q 3 633 6 585 q 2 720 1 681 q 8 786 3 760 q 22 822 11 806 q 48 849 32 839 q 83 865 64 860 q 122 867 101 869 q 186 826 163 860 q 203 753 210 793 q 200 636 196 717 q 217 461 204 556 q 346 457 281 463 q 474 440 411 451 q 456 606 465 529 q 440 728 446 683 q 442 767 438 749 q 458 801 447 786 q 486 826 469 815 q 524 839 503 836 q 596 821 564 846 q 635 756 628 796 q 640 719 635 751 q 651 638 644 688 q 664 526 657 589 q 678 397 671 464 z "},"I":{"ha":231,"x_min":1,"x_max":225,"o":"m 201 419 q 196 263 197 336 q 214 124 194 190 q 206 50 225 85 q 147 4 186 15 q 134 2 140 3 q 121 1 128 1 q 63 21 89 1 q 28 72 38 40 q 2 251 1 163 q 8 432 3 339 q 14 538 11 485 q 14 650 17 592 q 40 719 13 690 q 107 750 67 747 q 176 726 147 753 q 208 658 206 699 q 208 535 211 594 q 201 419 206 476 m 115 781 q 47 811 75 782 q 21 881 19 840 l 24 951 q 55 1018 25 990 q 125 1044 85 1046 q 191 1013 164 1042 q 217 943 218 983 l 214 874 q 185 806 213 833 q 119 779 157 779 q 115 781 115 779 z "},"J":{"ha":700,"x_min":-3,"x_max":735,"o":"m 657 850 q 715 804 696 839 q 724 731 735 769 q 678 672 713 692 q 606 663 644 651 q 602 664 603 664 q 599 665 601 664 q 623 523 613 599 q 633 372 633 447 q 615 226 632 296 q 557 106 599 157 q 522 69 543 88 q 474 35 501 50 q 410 11 446 21 q 328 1 374 1 q 232 12 274 1 q 159 39 190 22 q 105 76 128 56 q 68 115 82 96 q 11 236 25 171 q -3 360 -3 301 q 5 460 -3 418 q 15 513 13 503 q 60 572 26 551 q 133 581 94 592 q 193 537 172 571 q 203 464 214 503 q 194 419 199 449 q 190 356 190 390 q 197 289 190 322 q 221 233 203 256 q 230 223 224 229 q 248 210 236 217 q 279 199 260 204 q 328 194 299 194 q 380 204 364 194 q 404 225 396 214 q 435 310 429 256 q 438 426 442 364 q 422 552 433 489 q 400 665 411 615 q 297 653 346 661 q 218 638 247 646 q 192 633 206 633 q 134 652 160 633 q 99 703 108 671 q 106 776 88 742 q 164 822 125 811 q 265 844 201 833 q 399 860 328 854 q 540 864 471 865 q 657 850 608 863 z "},"K":{"ha":769,"x_min":-11,"x_max":796,"o":"m 522 481 q 652 357 586 436 q 785 150 718 278 q 794 112 793 132 q 790 74 796 92 q 771 40 783 56 q 740 15 758 25 q 717 6 729 8 q 694 4 706 4 q 642 18 667 4 q 604 58 618 32 q 507 215 554 156 q 417 308 460 275 q 340 351 375 340 q 283 357 306 361 q 363 157 304 240 q 378 82 386 122 q 335 18 369 42 q 279 0 311 0 q 233 11 254 0 q 196 44 211 22 q 131 168 158 100 q 88 310 103 236 q 70 463 72 385 q 83 615 68 540 q 33 638 56 619 q 0 688 10 657 q 8 764 -11 728 q 68 813 28 800 q 121 830 94 821 q 169 847 147 839 q 203 862 190 856 q 217 868 217 868 q 281 873 249 881 q 335 839 314 865 q 358 778 357 813 q 339 717 358 744 q 301 646 315 685 q 279 564 286 607 q 328 588 300 574 q 379 622 356 603 q 419 665 403 642 q 436 715 436 689 q 466 787 436 757 q 538 817 496 817 q 608 787 578 817 q 638 715 638 757 q 604 583 638 640 q 522 481 571 525 z "},"L":{"ha":583,"x_min":-8,"x_max":625,"o":"m 572 356 q 574 314 571 339 q 583 260 578 289 q 596 203 589 232 q 610 153 603 175 q 588 58 625 100 q 547 31 571 39 q 499 26 524 22 q 424 29 471 31 q 322 24 376 28 q 213 15 268 21 q 118 4 158 10 q 104 3 113 3 q 64 11 83 3 q 31 36 44 19 q 7 126 -4 75 q 17 190 13 149 q 25 285 22 232 q 28 401 28 339 q 25 526 28 464 q 15 649 22 589 q -4 757 8 708 q -5 797 -8 778 q 8 833 -1 817 q 34 862 18 850 q 69 878 50 874 q 145 866 110 888 q 190 804 181 844 q 215 662 207 739 q 226 506 224 585 q 226 353 228 428 q 219 217 224 278 q 301 223 258 219 q 386 228 344 226 q 374 301 379 264 q 372 369 369 338 q 406 438 375 410 q 479 463 438 465 q 547 428 519 460 q 572 356 575 397 z "},"M":{"ha":818,"x_min":-1,"x_max":828,"o":"m 746 793 q 773 753 760 778 q 797 682 786 728 q 816 565 808 636 q 826 383 824 493 q 828 275 828 326 q 827 183 828 224 q 826 117 826 142 q 825 90 825 92 q 794 24 822 50 q 726 -1 765 -3 q 660 30 686 1 q 636 99 633 58 q 640 231 639 163 q 638 363 640 299 q 633 485 636 428 q 624 585 629 542 q 555 463 592 536 q 486 311 518 389 q 400 251 461 254 l 399 251 q 347 267 371 251 q 311 307 322 282 q 251 433 283 369 q 189 550 219 496 q 188 444 188 500 q 192 332 189 389 q 199 217 194 275 q 213 108 204 160 q 197 38 219 69 q 133 1 174 7 q 119 -1 125 -1 q 58 22 85 -1 q 25 81 32 44 q 6 260 13 161 q -1 454 -1 358 q 6 635 -1 550 q 29 774 13 719 q 72 840 42 819 q 131 863 103 860 q 187 852 160 864 q 243 810 214 840 q 304 730 272 781 q 376 604 336 679 q 386 585 382 594 q 396 568 390 576 q 401 577 399 572 q 406 589 403 582 q 536 779 476 721 q 660 835 596 838 q 746 793 708 832 z "},"N":{"ha":681,"x_min":-7,"x_max":693,"o":"m 497 842 q 572 839 536 857 q 622 783 608 821 q 665 627 650 707 q 687 472 681 547 q 692 328 693 396 q 689 208 692 260 q 682 125 686 157 q 678 89 678 93 q 651 35 674 57 q 597 7 629 13 q 538 16 565 1 q 494 58 510 31 q 418 201 458 128 q 338 342 378 274 q 260 470 297 410 q 190 576 222 531 q 189 456 188 521 q 194 326 190 390 q 203 205 197 263 q 215 107 208 147 q 199 34 222 67 q 135 -6 175 1 q 126 -6 131 -6 q 119 -7 122 -7 q 56 16 83 -7 q 24 75 29 39 q 15 142 21 94 q 5 253 10 189 q -3 391 0 317 q -6 538 -7 465 q 4 674 -4 610 q 29 785 13 739 q 69 840 42 819 q 132 864 96 861 q 192 852 161 865 q 262 799 222 839 q 354 683 301 758 q 479 488 407 608 q 485 476 482 481 q 492 465 489 471 q 474 592 486 528 q 439 717 461 657 q 442 791 425 754 q 497 842 460 828 z "},"O":{"ha":729,"x_min":-21,"x_max":756,"o":"m 269 865 q 469 837 388 865 q 603 767 550 808 q 686 678 657 725 q 729 592 715 631 q 755 446 754 519 q 737 306 756 372 q 685 183 718 239 q 611 94 653 128 q 497 28 558 50 q 368 7 435 7 q 246 26 303 7 q 92 128 154 58 q 8 289 29 197 q -2 531 -21 418 q 78 715 17 644 q 115 751 93 733 q 165 782 138 768 q 203 842 174 818 q 269 865 232 865 m 476 258 q 508 301 493 272 q 533 367 524 331 q 542 443 542 403 q 528 521 542 483 q 408 633 501 601 q 369 606 393 615 q 321 599 346 596 q 312 599 317 599 q 303 600 307 600 q 257 590 271 600 q 238 575 243 581 q 204 478 210 543 q 215 336 199 413 q 250 270 224 299 q 315 228 276 242 q 399 222 357 214 q 476 258 440 231 z "},"P":{"ha":553,"x_min":-151,"x_max":579,"o":"m 454 814 q 538 730 507 781 q 574 615 569 679 q 556 477 579 538 q 491 373 532 417 q 398 301 450 329 q 296 256 346 272 q 335 172 315 197 q 354 135 349 156 q 358 95 360 115 q 345 57 356 75 q 318 25 335 39 q 253 1 288 1 q 171 40 206 1 q 110 153 138 82 q 63 308 83 225 q 31 474 43 390 q 18 624 19 558 q 10 620 14 621 q 1 617 6 619 q -79 618 -39 601 q -135 675 -119 635 q -134 755 -151 715 q -76 811 -117 794 q 40 847 -28 831 q 181 868 108 864 q 326 860 254 872 q 454 814 397 849 m 246 460 q 289 478 267 467 q 328 507 311 490 q 356 547 346 524 q 365 599 367 569 q 343 636 364 625 q 294 654 324 649 q 228 660 264 660 q 230 571 225 624 q 246 460 235 518 z "},"Q":{"ha":764,"x_min":-10,"x_max":776,"o":"m 713 196 q 757 160 740 185 q 774 104 774 136 q 744 33 774 63 q 674 4 715 4 q 613 15 643 4 q 556 44 583 26 q 382 6 471 6 q 316 11 350 6 q 250 28 282 17 q 92 128 157 60 q 7 288 28 197 q -8 408 -7 349 q 1 523 -10 468 q 33 625 11 578 q 86 710 54 672 q 128 750 104 729 q 189 786 153 771 q 223 844 196 821 q 286 867 250 867 q 486 838 404 867 q 622 768 568 810 q 705 679 675 726 q 749 593 735 632 q 772 490 767 543 q 771 385 776 436 q 750 285 765 333 q 713 196 735 238 m 203 332 q 241 263 211 293 q 315 217 271 232 q 367 206 343 207 q 358 213 361 211 q 319 278 325 238 q 338 353 313 319 q 402 392 361 386 q 476 374 443 399 q 547 313 510 350 q 573 415 567 357 q 560 525 579 472 q 426 649 529 613 q 388 619 411 629 q 340 611 365 608 l 322 611 q 266 600 285 611 q 236 578 247 589 q 195 474 204 542 q 203 332 186 406 z "},"R":{"ha":593,"x_min":-133,"x_max":608,"o":"m 528 575 q 485 438 522 496 q 529 382 507 414 q 569 308 551 350 q 598 214 588 267 q 608 97 608 161 q 579 28 608 57 q 510 -1 550 -1 q 439 28 468 -1 q 410 97 410 57 q 402 178 410 143 q 383 239 394 213 q 357 282 371 265 q 331 310 343 299 q 208 276 271 285 q 222 198 215 232 q 239 149 229 164 q 250 73 260 113 q 204 13 240 33 q 153 -1 181 -1 q 105 11 128 -1 q 67 47 82 24 q 26 169 42 92 q 3 335 10 247 q -1 511 -3 424 q 8 663 0 599 q -8 658 -3 660 q -49 658 -29 654 q -85 671 -68 661 q -113 697 -101 681 q -129 732 -125 713 q -130 772 -133 753 q -117 808 -126 792 q -91 835 -107 824 q -56 853 -75 847 q 59 869 -7 864 q 194 867 125 874 q 329 841 264 861 q 443 779 394 821 q 510 688 489 740 q 528 575 532 635 m 210 667 q 199 584 201 635 q 197 475 196 533 q 240 487 218 479 q 282 508 263 494 q 314 542 301 522 q 329 589 326 561 q 314 628 331 614 q 270 652 297 643 q 210 667 243 661 z "},"S":{"ha":583,"x_min":-36,"x_max":601,"o":"m 522 864 q 581 824 560 857 q 593 753 601 790 q 586 690 588 729 q 586 618 585 651 l 586 582 q 557 518 583 544 q 492 492 531 492 q 426 518 454 492 q 397 582 399 544 l 397 610 q 385 647 394 635 q 367 664 375 658 q 294 678 338 682 q 213 654 250 675 q 172 622 192 643 q 151 567 151 600 l 151 564 q 172 550 156 557 q 210 537 189 543 q 254 525 232 531 q 293 515 276 519 q 389 492 342 504 q 476 456 436 479 q 538 410 514 435 q 574 358 561 385 q 592 306 588 332 q 594 258 596 281 q 531 91 592 158 q 368 8 469 24 q 321 4 344 4 q 238 15 281 4 q 156 46 196 25 q 119 22 140 31 q 75 17 99 14 q 13 53 36 22 q -6 124 -11 85 q 8 214 1 175 q 14 254 14 253 q 42 308 18 286 q 99 333 65 331 q 158 319 131 336 q 196 269 185 301 q 219 231 203 247 q 255 206 235 215 q 297 194 275 197 q 340 193 319 190 q 378 207 365 197 q 398 227 392 217 q 406 247 404 238 q 407 263 407 257 q 405 276 407 269 q 386 290 403 282 q 326 314 363 304 q 251 332 290 324 q 158 356 208 342 q 65 395 108 369 q -7 462 22 421 q -36 567 -36 503 q 4 711 -36 646 q 119 818 44 776 q 280 866 194 860 q 435 840 365 872 q 474 863 451 856 q 522 864 497 869 z "},"T":{"ha":729,"x_min":-25,"x_max":742,"o":"m 644 826 q 713 799 685 826 q 742 731 742 771 q 714 663 742 690 q 646 633 686 635 l 635 633 q 534 638 579 633 q 449 647 489 642 q 443 542 446 603 q 441 412 440 482 q 446 265 442 342 q 461 108 450 188 q 442 37 467 68 q 379 0 418 6 q 372 -1 375 0 q 365 -1 368 -1 q 302 22 329 -1 q 271 83 275 46 q 253 256 258 171 q 249 419 249 342 q 251 560 249 496 q 257 672 254 625 q 97 658 188 676 q 24 672 57 650 q -17 732 -8 693 q -3 806 -25 772 q 57 846 18 839 q 163 863 115 858 q 253 865 211 867 q 335 858 296 864 q 413 847 374 853 q 517 832 463 839 q 644 826 572 825 z "},"U":{"ha":667,"x_min":-99,"x_max":678,"o":"m 482 792 q 557 785 521 804 q 604 728 593 767 q 674 344 678 499 q 590 100 669 190 q 552 64 575 82 q 499 32 529 46 q 431 9 469 18 q 343 0 392 0 q 294 3 319 0 q 239 11 268 6 q 58 128 122 32 q -3 319 4 210 q 7 546 -10 428 q -40 558 -18 546 q -76 593 -62 569 q -89 667 -99 628 q -46 728 -79 706 q -19 745 -35 735 q 11 769 -4 756 q 41 796 26 782 q 65 822 56 810 q 121 863 86 853 q 188 857 156 872 q 208 844 196 853 q 229 822 219 836 q 244 785 239 807 q 243 733 249 764 q 238 715 240 725 q 233 690 236 704 q 214 597 226 657 q 194 469 201 536 q 192 338 188 401 q 221 236 196 274 q 244 215 232 222 q 275 204 256 207 q 320 198 296 200 q 367 198 344 196 q 410 207 390 200 q 443 229 431 214 q 463 267 453 240 q 476 343 474 293 q 466 472 478 393 q 418 668 454 551 q 424 744 406 708 q 482 792 443 781 z "},"V":{"ha":613,"x_min":-49,"x_max":643,"o":"m 544 867 q 614 838 585 867 q 643 768 643 808 q 638 676 643 728 q 623 567 632 624 q 601 451 614 510 q 571 338 588 392 q 456 82 519 164 q 308 -1 392 0 l 307 -1 q 244 11 281 -1 q 167 64 207 24 q 81 185 121 110 q 13 356 42 261 q -33 556 -17 450 q -49 768 -49 663 q -19 838 -49 808 q 50 867 10 867 q 119 838 90 867 q 149 768 149 808 q 165 569 149 663 q 204 403 181 476 q 254 278 228 329 q 301 206 281 226 q 341 279 317 226 q 393 432 365 332 q 417 533 407 483 q 433 627 426 583 q 442 707 439 671 q 446 768 446 743 q 475 838 446 808 q 544 867 504 867 z "},"W":{"ha":979,"x_min":-75,"x_max":996,"o":"m 711 833 q 788 851 746 858 q 853 810 829 844 q 929 666 896 749 q 979 494 963 583 q 992 320 996 406 q 958 167 989 235 q 870 53 926 96 q 738 0 814 10 q 474 69 581 -21 q 450 90 460 79 q 415 53 432 67 q 351 14 390 32 q 257 -4 313 -4 q 228 -3 243 -4 q 197 3 214 -1 q 127 29 163 8 q 63 92 92 50 q 15 203 33 135 q -3 375 -3 272 q 3 482 -1 428 q 14 586 7 536 q -57 642 -35 594 q -61 719 -75 681 q -10 776 -47 758 q 30 801 10 786 q 56 824 50 815 q 112 876 75 864 q 181 878 149 889 q 198 869 185 876 q 224 849 211 863 q 245 811 238 835 q 247 753 253 788 q 244 736 246 746 q 240 714 243 726 q 229 649 236 688 q 216 564 222 610 q 205 469 210 518 q 200 374 200 421 q 205 289 200 322 q 216 236 210 256 q 228 208 222 217 q 238 200 235 200 q 270 200 261 196 q 282 207 279 204 q 304 238 294 217 q 319 285 314 260 q 327 338 325 311 q 329 386 329 365 q 356 460 328 429 q 426 492 383 490 q 428 492 428 492 q 431 493 429 493 q 500 465 471 493 q 532 396 529 436 q 536 361 532 383 q 549 314 540 339 q 570 265 557 289 q 604 225 583 242 q 711 200 642 192 q 774 247 754 206 q 791 348 792 289 q 777 469 790 407 q 740 592 764 532 q 686 693 715 651 q 669 769 663 728 q 711 833 676 810 z "},"X":{"ha":661,"x_min":-76,"x_max":686,"o":"m 586 199 q 657 169 628 199 q 686 99 686 140 q 657 28 686 57 q 586 -1 628 -1 q 232 264 410 -1 q 165 172 193 218 q 128 79 138 125 q 93 21 121 43 q 31 -1 65 -1 q 20 -1 25 -1 q 10 0 15 0 q -53 44 -31 10 q -68 118 -76 78 q 5 292 -49 211 q 128 447 58 372 q 83 542 104 494 q 47 634 63 590 q 21 714 31 678 q 11 774 11 750 q 40 844 11 815 q 111 874 69 874 q 181 845 153 874 q 213 776 210 817 q 232 710 215 760 q 281 594 249 661 q 283 598 282 597 q 288 601 285 599 q 348 658 317 629 q 405 713 379 686 q 449 765 431 740 q 475 807 468 789 q 526 864 489 846 q 601 868 563 882 q 660 817 642 854 q 664 740 678 781 q 573 600 639 669 q 424 454 507 531 q 401 433 413 443 q 376 411 389 422 q 447 308 414 349 q 508 242 481 267 q 555 208 535 218 q 586 199 575 199 z "},"Y":{"ha":661,"x_min":-39,"x_max":765,"o":"m 718 733 q 758 669 750 710 q 742 596 765 629 q 710 566 729 576 q 669 554 690 556 q 656 451 665 504 q 628 343 646 397 q 584 238 611 289 q 518 144 557 188 q 169 0 386 0 q 157 0 163 0 q 144 1 151 0 q 76 33 104 3 q 49 103 47 63 q 81 172 51 143 q 151 199 111 200 q 340 249 268 193 q 43 364 142 249 q -24 494 -8 424 q -36 629 -39 565 q -21 739 -33 693 q -6 796 -8 785 q 46 853 10 835 q 121 856 82 871 q 178 806 160 842 q 182 731 196 769 q 170 685 176 715 q 162 619 164 654 q 166 551 160 585 q 193 493 172 517 q 290 449 222 457 q 456 456 357 440 q 469 543 465 499 q 475 627 474 588 q 474 699 476 667 q 469 753 472 732 q 485 820 464 789 q 542 861 506 851 q 610 856 578 872 q 657 806 643 839 q 672 779 664 793 q 691 756 679 768 q 718 733 703 743 z "},"Z":{"ha":696,"x_min":-78,"x_max":732,"o":"m 686 254 q 689 234 686 247 q 697 204 692 221 q 708 169 701 188 q 721 135 714 151 q 726 75 732 106 q 697 24 719 44 q 631 -1 668 -1 q 585 11 607 -1 q 503 28 561 24 q 368 31 444 33 q 205 22 292 29 q 39 3 118 15 q -23 15 6 -1 q -65 61 -51 31 q -70 122 -78 90 q -37 175 -62 154 q 92 283 26 226 q 220 393 158 339 q 335 497 282 447 q 426 586 388 547 q 317 605 374 594 q 208 626 261 615 q 213 606 211 615 q 218 588 215 597 q 203 514 225 547 q 140 474 181 481 q 67 488 100 465 q 26 550 33 510 q 13 599 22 575 q -8 643 3 622 q -28 680 -18 664 q -43 703 -37 696 q -63 757 -62 726 q -47 814 -64 788 q -3 851 -31 839 q 56 857 25 864 q 126 842 83 850 q 217 823 168 833 q 319 803 267 813 q 422 785 372 793 q 513 770 471 776 q 581 763 554 764 q 646 739 618 760 q 685 685 674 718 q 688 625 693 656 q 650 549 682 594 q 554 439 618 504 q 382 276 490 374 q 353 251 367 264 q 324 226 339 238 q 410 227 368 228 q 493 224 453 226 q 491 248 492 236 q 492 271 490 260 q 526 337 496 311 q 597 360 557 363 q 663 325 638 356 q 686 254 689 294 z "},"a":{"ha":696,"x_min":4,"x_max":739,"o":"m 731 113 q 725 50 739 81 q 683 3 711 19 q 689 1 686 3 q 689 -1 692 1 q 683 -3 688 -3 l 682 -3 l 681 -3 q 679 0 679 -1 l 679 1 q 664 -6 672 -3 q 663 -7 664 -7 q 657 -11 660 -11 q 647 -31 647 -11 q 648 -36 647 -33 q 649 -42 649 -39 l 649 -43 l 649 -44 q 648 -65 649 -56 q 649 -85 647 -74 q 649 -87 649 -86 q 650 -90 650 -89 q 651 -98 650 -93 q 649 -107 651 -103 q 631 -115 644 -115 q 625 -114 626 -115 q 616 -109 618 -114 q 614 -99 614 -104 l 614 -96 l 614 -94 l 614 -93 l 614 -92 q 613 -90 614 -92 q 613 -89 613 -90 q 609 -78 610 -86 q 610 -62 608 -71 l 610 -58 l 610 -43 l 610 -35 l 610 -31 q 608 -18 610 -22 q 603 -22 606 -22 l 604 -22 l 604 -24 q 603 -26 604 -25 q 599 -28 603 -28 l 597 -28 q 594 -22 593 -25 l 596 -22 q 599 -21 596 -22 q 597 -18 597 -19 l 599 -18 q 600 -14 599 -15 l 599 -12 q 597 -11 597 -11 q 594 -10 596 -11 l 592 -10 q 589 -7 589 -7 l 589 -6 q 588 -3 588 -6 l 588 1 q 581 3 585 3 l 579 3 l 578 3 q 576 7 576 4 q 536 64 547 28 q 531 86 533 75 q 526 108 529 97 q 364 135 447 126 q 221 136 281 143 q 211 100 215 118 q 203 63 207 82 q 167 9 194 29 q 107 -11 140 -11 q 81 -7 93 -11 q 44 9 60 -3 q 19 38 29 21 q 7 74 10 54 q 10 114 4 93 q 19 147 11 117 q 41 224 28 176 q 73 333 54 272 q 113 458 92 394 q 181 651 150 574 q 243 777 213 729 q 306 845 274 825 q 374 865 338 865 q 441 845 410 865 q 502 777 472 825 q 563 651 532 729 q 632 458 594 574 q 670 333 653 393 q 701 224 688 272 q 722 146 714 176 q 731 113 729 115 m 282 338 q 377 333 331 338 q 467 324 424 329 q 418 473 443 403 q 372 594 393 543 q 329 480 353 546 q 282 338 306 414 z "},"b":{"ha":725,"x_min":-8,"x_max":774,"o":"m 139 64 q 143 61 143 64 l 143 57 q 139 56 142 56 l 136 56 q 132 60 132 57 q 133 63 132 60 q 139 64 136 64 m 281 6 q 286 3 283 6 l 286 -1 q 285 -3 286 -1 l 283 -3 q 279 -3 283 -7 l 278 -3 q 276 3 276 -1 q 281 6 276 6 m 760 311 q 742 160 774 228 q 639 50 710 93 q 542 13 594 25 q 432 0 490 0 q 290 17 361 0 q 288 14 288 17 q 278 7 283 11 q 267 3 274 3 l 265 3 l 265 1 q 264 -1 265 -1 q 261 -3 263 -1 q 262 -10 261 -6 q 263 -17 263 -14 l 263 -24 q 265 -37 264 -31 q 263 -49 265 -43 q 244 -60 256 -60 q 236 -58 240 -60 q 227 -51 229 -58 q 225 -37 225 -44 l 224 -37 q 225 -35 224 -36 q 225 -32 225 -35 q 226 -31 225 -31 l 225 -29 q 224 -28 225 -28 q 224 -26 224 -28 q 222 -22 222 -26 q 219 -8 219 -18 q 219 13 218 1 q 218 14 219 13 l 218 15 l 218 17 q 221 21 218 19 q 219 32 221 28 l 219 35 q 210 8 210 35 q 211 -7 211 3 l 211 -10 l 211 -12 q 211 -40 211 -26 q 213 -67 211 -53 q 214 -74 213 -72 q 213 -99 217 -89 q 196 -110 208 -110 l 188 -110 q 178 -102 181 -108 q 175 -89 175 -96 l 175 -87 l 175 -85 l 175 -82 q 176 -81 175 -82 l 175 -79 l 175 -76 q 174 -74 174 -76 q 170 -58 171 -68 q 171 -37 169 -49 q 172 -35 171 -36 q 172 -32 172 -33 q 172 -22 172 -26 q 171 -11 171 -17 l 171 3 l 171 7 q 168 24 171 21 q 163 19 167 22 l 164 19 l 164 18 q 163 14 164 14 q 158 11 160 11 q 157 13 157 11 q 154 18 153 15 q 157 21 154 21 l 157 24 l 157 25 q 161 29 157 26 q 154 35 160 32 q 152 35 153 35 q 150 36 151 36 q 149 39 150 38 q 147 42 147 39 q 147 43 147 43 q 146 44 146 43 l 146 46 q 144 54 144 50 q 146 64 144 63 q 148 67 147 67 q 150 71 149 68 q 71 122 104 94 q 32 190 38 149 q 53 264 26 231 q 106 300 74 292 q 168 297 138 308 q 139 478 149 385 q 132 644 129 571 q 57 651 93 633 q 7 707 21 668 q 10 785 -8 747 q 67 838 28 822 q 100 849 74 840 q 165 866 126 857 q 251 881 203 875 q 349 887 299 888 q 448 876 399 886 q 540 840 497 865 q 667 642 646 775 q 664 555 674 592 q 639 490 654 518 q 717 417 685 461 q 760 311 750 374 m 338 685 q 334 631 335 661 q 335 565 333 601 q 357 565 346 565 q 379 564 368 565 q 431 574 408 567 q 463 590 453 581 q 466 596 464 592 q 465 614 468 600 q 453 649 463 639 q 436 665 444 660 q 393 681 418 676 q 338 685 368 685 m 536 225 q 558 247 553 235 q 560 279 563 260 q 540 312 557 297 q 497 336 522 326 q 440 352 471 346 q 378 361 408 358 q 361 360 372 360 q 385 266 372 307 q 410 206 397 225 q 411 204 411 206 q 481 207 449 201 q 536 225 514 213 z "},"c":{"ha":681,"x_min":-10,"x_max":694,"o":"m 610 403 q 647 389 631 400 q 675 361 664 378 q 690 326 686 344 q 693 292 694 308 q 669 204 689 254 q 608 109 649 154 q 506 33 568 64 q 357 1 444 1 l 350 1 q 169 62 249 3 q 42 226 89 121 q 1 370 13 294 q -3 517 -10 446 q 29 653 4 589 q 96 763 54 717 q 224 856 153 828 q 375 869 296 883 q 428 857 403 867 q 481 832 454 847 q 531 868 500 858 q 593 867 561 878 q 650 816 632 853 q 656 740 668 779 q 652 717 651 732 q 656 685 653 701 q 663 651 658 668 q 674 622 668 635 q 674 546 689 583 q 621 492 658 508 q 581 484 601 483 q 544 492 561 485 q 513 512 526 499 q 490 543 499 525 q 463 590 479 568 q 426 630 446 613 q 385 659 407 647 q 343 674 364 671 q 299 672 324 676 q 244 631 275 667 q 210 567 222 606 q 194 485 197 529 q 199 394 192 440 q 224 306 207 347 q 244 269 232 288 q 271 236 256 251 q 307 210 286 221 q 353 200 328 200 l 357 200 q 424 214 399 200 q 465 247 450 228 q 487 286 481 267 q 496 317 493 306 l 496 318 q 505 349 499 333 q 524 378 511 365 q 557 399 536 392 q 610 403 578 406 z "},"d":{"ha":764,"x_min":-10,"x_max":785,"o":"m 569 804 q 768 450 731 701 q 747 244 785 338 q 621 89 710 151 q 480 23 558 44 q 321 1 401 1 q 198 15 258 1 q 88 56 138 28 q 40 115 51 75 q 50 190 29 154 q 103 237 68 225 q 174 233 138 249 q 152 332 161 281 q 137 435 143 383 q 128 537 131 488 q 126 628 125 586 q 117 626 121 628 q 42 641 76 619 q -1 703 7 663 q 13 778 -10 743 q 76 821 36 813 q 87 824 79 822 q 103 828 94 826 q 190 850 136 838 q 306 866 243 863 q 438 858 369 869 q 569 804 506 846 m 507 251 q 572 419 589 307 q 463 639 547 582 q 399 664 433 658 q 329 669 365 669 q 326 561 322 628 q 339 425 329 494 q 363 295 349 356 q 393 207 378 235 q 454 224 425 214 q 507 251 483 235 z "},"e":{"ha":667,"x_min":-4,"x_max":696,"o":"m 599 478 q 668 445 640 475 q 693 374 696 415 q 658 220 688 286 q 585 106 629 154 l 585 104 l 585 99 l 583 99 l 582 99 q 583 93 582 94 q 582 81 588 86 q 576 76 578 76 q 567 49 567 75 l 567 35 l 567 32 l 567 29 l 567 -25 l 567 -32 q 569 -44 568 -39 q 567 -56 569 -50 q 549 -67 560 -67 l 542 -67 q 533 -58 535 -64 q 531 -46 531 -51 l 531 -42 q 532 -39 531 -40 l 532 -37 l 532 -36 q 529 -35 531 -36 l 529 -31 q 526 -16 526 -25 q 526 4 525 -7 l 526 11 q 518 -14 518 8 l 518 -31 l 518 -32 l 518 -36 l 518 -90 l 518 -96 q 520 -108 519 -101 q 518 -121 521 -115 q 500 -132 511 -132 q 493 -131 496 -132 q 484 -123 486 -129 q 482 -110 482 -117 l 482 -108 l 482 -107 l 482 -103 l 482 -101 l 482 -100 q 481 -97 482 -99 l 481 -94 q 477 -81 478 -90 q 478 -60 476 -71 l 478 -53 l 478 -33 l 478 -19 l 478 -14 q 476 0 479 -6 q 471 -4 472 -4 l 472 -4 q 471 -8 472 -8 q 467 -11 468 -11 q 464 -10 465 -11 q 461 -4 460 -6 l 463 -3 q 465 -1 463 -3 q 464 0 465 -1 l 465 3 q 468 6 465 6 q 463 13 468 10 l 460 13 q 457 15 457 14 q 456 17 457 15 l 456 18 q 390 -3 424 3 q 322 -8 357 -8 l 311 -8 q 184 17 242 -7 q 85 83 126 42 q 19 182 43 125 q -4 306 -4 239 q 11 390 -4 353 q 53 456 26 428 q 31 569 24 507 q 56 685 38 631 q 90 764 69 732 q 134 817 111 796 q 181 849 157 838 q 226 865 206 860 q 325 866 275 876 q 419 832 375 856 q 456 876 432 860 q 511 893 481 893 q 582 864 553 893 q 611 793 611 835 q 614 753 611 775 q 621 711 617 732 q 628 673 625 690 q 633 646 632 656 q 630 583 643 614 q 586 533 617 551 q 523 523 556 518 q 465 553 490 528 q 412 601 440 578 q 356 640 383 624 q 307 665 329 657 q 272 671 285 674 q 243 625 258 671 q 235 592 238 606 q 231 568 233 578 l 286 568 q 317 569 301 569 q 351 569 333 569 q 421 542 392 569 q 451 475 450 515 q 424 404 451 433 q 356 372 396 375 q 302 365 331 371 q 249 351 274 360 q 209 331 225 342 q 193 306 193 319 q 204 252 193 274 q 233 217 215 231 q 274 197 251 204 q 318 190 296 190 q 376 199 346 189 q 431 231 406 208 q 474 292 457 254 q 496 386 492 331 q 528 453 499 426 q 599 478 558 481 m 599 93 q 608 93 601 96 q 608 88 610 89 q 603 85 606 85 q 601 86 601 85 l 600 88 q 597 90 597 88 l 597 92 q 599 93 597 92 z "},"f":{"ha":593,"x_min":-24,"x_max":606,"o":"m 574 790 q 576 753 574 774 q 583 713 579 732 q 590 679 586 694 q 596 656 593 664 q 592 593 606 624 q 551 544 579 563 q 488 533 521 528 q 432 561 456 538 q 383 604 410 583 q 328 641 356 625 q 278 666 301 657 q 240 671 254 675 q 213 624 226 668 q 203 590 206 604 q 199 568 201 576 q 225 567 210 567 q 253 568 240 568 q 265 569 260 568 q 278 569 271 569 q 311 572 297 572 q 328 569 325 571 q 392 535 367 565 q 415 467 417 506 q 385 401 413 428 q 317 374 357 374 l 290 374 q 260 366 276 371 q 232 346 244 361 q 200 258 206 317 q 210 117 194 199 q 194 43 217 76 q 131 3 171 10 q 113 1 124 1 q 50 24 76 1 q 17 82 24 46 q 49 424 -24 294 q 35 439 43 428 q 7 496 14 465 q 1 558 0 526 q 9 621 1 589 q 25 681 17 653 q 60 760 39 728 q 103 813 81 792 q 150 845 126 833 q 194 863 174 857 q 293 863 243 874 q 388 833 343 853 q 423 872 399 857 q 475 888 447 888 q 545 859 517 888 q 574 790 574 831 z "},"g":{"ha":686,"x_min":-11,"x_max":689,"o":"m 590 454 q 658 428 629 454 q 689 363 686 401 q 689 328 689 356 q 681 263 689 301 q 653 181 672 225 q 597 99 635 138 q 559 65 582 82 q 506 33 536 47 q 435 10 475 19 q 347 1 396 1 q 169 58 247 1 q 43 219 90 115 q 1 363 13 288 q -4 511 -11 439 q 27 648 3 583 q 93 758 51 713 q 223 851 151 824 q 371 867 294 879 q 478 829 428 858 q 527 863 497 853 q 589 861 557 872 q 645 811 628 847 q 650 736 663 775 q 646 709 646 725 q 648 676 646 693 q 653 645 650 660 q 660 622 657 631 q 657 549 674 585 q 604 497 640 513 q 531 497 568 482 q 476 550 493 513 q 418 632 456 599 q 342 671 381 665 q 304 670 331 674 q 242 626 278 667 q 207 563 219 601 q 192 479 194 524 q 198 388 190 435 q 224 300 206 340 q 243 264 232 282 q 269 231 254 246 q 304 208 285 217 q 347 199 324 199 q 454 235 421 199 q 463 244 458 239 q 469 256 467 250 l 404 256 q 334 284 363 256 q 304 353 306 313 q 333 424 304 394 q 403 453 361 453 l 589 454 l 590 454 l 590 454 z "},"h":{"ha":690,"x_min":-11,"x_max":740,"o":"m 678 397 q 724 349 708 382 q 729 282 740 317 q 689 225 718 244 q 692 133 692 176 q 689 56 692 89 q 658 -10 686 15 q 590 -36 629 -36 l 582 -36 q 515 -1 542 -32 q 490 71 488 31 q 490 238 497 136 q 368 256 429 249 q 251 264 307 264 q 271 197 261 228 q 292 146 281 167 q 298 70 310 110 q 250 13 286 31 q 204 1 228 1 q 153 15 176 1 q 117 56 129 29 q 81 143 97 92 q 51 257 64 194 q 18 281 32 265 q -3 319 4 297 q -3 374 -11 347 q 24 419 4 400 q 10 530 15 475 q 3 633 6 585 q 2 720 1 681 q 8 786 3 760 q 22 822 11 806 q 48 849 32 839 q 83 865 64 860 q 122 867 101 869 q 186 826 163 860 q 203 753 210 793 q 200 636 196 717 q 217 461 204 556 q 346 457 281 463 q 474 440 411 451 q 456 606 465 529 q 440 728 446 683 q 442 767 438 749 q 458 801 447 786 q 486 826 469 815 q 524 839 503 836 q 596 821 564 846 q 635 756 628 796 q 640 719 635 751 q 651 638 644 688 q 664 526 657 589 q 678 397 671 464 z "},"i":{"ha":231,"x_min":1,"x_max":225,"o":"m 201 419 q 196 263 197 336 q 214 124 194 190 q 206 50 225 85 q 147 4 186 15 q 134 2 140 3 q 121 1 128 1 q 63 21 89 1 q 28 72 38 40 q 2 251 1 163 q 8 432 3 339 q 14 538 11 485 q 14 650 17 592 q 40 719 13 690 q 107 750 67 747 q 176 726 147 753 q 208 658 206 699 q 208 535 211 594 q 201 419 206 476 m 115 781 q 47 811 75 782 q 21 881 19 840 l 24 951 q 55 1018 25 990 q 125 1044 85 1046 q 191 1013 164 1042 q 217 943 218 983 l 214 874 q 185 806 213 833 q 119 779 157 779 q 115 781 115 779 z "},"j":{"ha":700,"x_min":-3,"x_max":735,"o":"m 657 850 q 715 804 696 839 q 724 731 735 769 q 678 672 713 692 q 606 663 644 651 q 602 664 603 664 q 599 665 601 664 q 623 523 613 599 q 633 372 633 447 q 615 226 632 296 q 557 106 599 157 q 522 69 543 88 q 474 35 501 50 q 410 11 446 21 q 328 1 374 1 q 232 12 274 1 q 159 39 190 22 q 105 76 128 56 q 68 115 82 96 q 11 236 25 171 q -3 360 -3 301 q 5 460 -3 418 q 15 513 13 503 q 60 572 26 551 q 133 581 94 592 q 193 537 172 571 q 203 464 214 503 q 194 419 199 449 q 190 356 190 390 q 197 289 190 322 q 221 233 203 256 q 230 223 224 229 q 248 210 236 217 q 279 199 260 204 q 328 194 299 194 q 380 204 364 194 q 404 225 396 214 q 435 310 429 256 q 438 426 442 364 q 422 552 433 489 q 400 665 411 615 q 297 653 346 661 q 218 638 247 646 q 192 633 206 633 q 134 652 160 633 q 99 703 108 671 q 106 776 88 742 q 164 822 125 811 q 265 844 201 833 q 399 860 328 854 q 540 864 471 865 q 657 850 608 863 z "},"k":{"ha":769,"x_min":-11,"x_max":796,"o":"m 522 481 q 652 357 586 436 q 785 150 718 278 q 794 112 793 132 q 790 74 796 92 q 771 40 783 56 q 740 15 758 25 q 717 6 729 8 q 694 4 706 4 q 642 18 667 4 q 604 58 618 32 q 507 215 554 156 q 417 308 460 275 q 340 351 375 340 q 283 357 306 361 q 363 157 304 240 q 378 82 386 122 q 335 18 369 42 q 279 0 311 0 q 233 11 254 0 q 196 44 211 22 q 131 168 158 100 q 88 310 103 236 q 70 463 72 385 q 83 615 68 540 q 33 638 56 619 q 0 688 10 657 q 8 764 -11 728 q 68 813 28 800 q 121 830 94 821 q 169 847 147 839 q 203 862 190 856 q 217 868 217 868 q 281 873 249 881 q 335 839 314 865 q 358 778 357 813 q 339 717 358 744 q 301 646 315 685 q 279 564 286 607 q 328 588 300 574 q 379 622 356 603 q 419 665 403 642 q 436 715 436 689 q 466 787 436 757 q 538 817 496 817 q 608 787 578 817 q 638 715 638 757 q 604 583 638 640 q 522 481 571 525 z "},"l":{"ha":583,"x_min":-8,"x_max":625,"o":"m 572 356 q 574 314 571 339 q 583 260 578 289 q 596 203 589 232 q 610 153 603 175 q 588 58 625 100 q 547 31 571 39 q 499 26 524 22 q 424 29 471 31 q 322 24 376 28 q 213 15 268 21 q 118 4 158 10 q 104 3 113 3 q 64 11 83 3 q 31 36 44 19 q 7 126 -4 75 q 17 190 13 149 q 25 285 22 232 q 28 401 28 339 q 25 526 28 464 q 15 649 22 589 q -4 757 8 708 q -5 797 -8 778 q 8 833 -1 817 q 34 862 18 850 q 69 878 50 874 q 145 866 110 888 q 190 804 181 844 q 215 662 207 739 q 226 506 224 585 q 226 353 228 428 q 219 217 224 278 q 301 223 258 219 q 386 228 344 226 q 374 301 379 264 q 372 369 369 338 q 406 438 375 410 q 479 463 438 465 q 547 428 519 460 q 572 356 575 397 z "},"m":{"ha":818,"x_min":-1,"x_max":828,"o":"m 746 793 q 773 753 760 778 q 797 682 786 728 q 816 565 808 636 q 826 383 824 493 q 828 275 828 326 q 827 183 828 224 q 826 117 826 142 q 825 90 825 92 q 794 24 822 50 q 726 -1 765 -3 q 660 30 686 1 q 636 99 633 58 q 640 231 639 163 q 638 363 640 299 q 633 485 636 428 q 624 585 629 542 q 555 463 592 536 q 486 311 518 389 q 400 251 461 254 l 399 251 q 347 267 371 251 q 311 307 322 282 q 251 433 283 369 q 189 550 219 496 q 188 444 188 500 q 192 332 189 389 q 199 217 194 275 q 213 108 204 160 q 197 38 219 69 q 133 1 174 7 q 119 -1 125 -1 q 58 22 85 -1 q 25 81 32 44 q 6 260 13 161 q -1 454 -1 358 q 6 635 -1 550 q 29 774 13 719 q 72 840 42 819 q 131 863 103 860 q 187 852 160 864 q 243 810 214 840 q 304 730 272 781 q 376 604 336 679 q 386 585 382 594 q 396 568 390 576 q 401 577 399 572 q 406 589 403 582 q 536 779 476 721 q 660 835 596 838 q 746 793 708 832 z "},"n":{"ha":681,"x_min":-7,"x_max":693,"o":"m 497 842 q 572 839 536 857 q 622 783 608 821 q 665 627 650 707 q 687 472 681 547 q 692 328 693 396 q 689 208 692 260 q 682 125 686 157 q 678 89 678 93 q 651 35 674 57 q 597 7 629 13 q 538 16 565 1 q 494 58 510 31 q 418 201 458 128 q 338 342 378 274 q 260 470 297 410 q 190 576 222 531 q 189 456 188 521 q 194 326 190 390 q 203 205 197 263 q 215 107 208 147 q 199 34 222 67 q 135 -6 175 1 q 126 -6 131 -6 q 119 -7 122 -7 q 56 16 83 -7 q 24 75 29 39 q 15 142 21 94 q 5 253 10 189 q -3 391 0 317 q -6 538 -7 465 q 4 674 -4 610 q 29 785 13 739 q 69 840 42 819 q 132 864 96 861 q 192 852 161 865 q 262 799 222 839 q 354 683 301 758 q 479 488 407 608 q 485 476 482 481 q 492 465 489 471 q 474 592 486 528 q 439 717 461 657 q 442 791 425 754 q 497 842 460 828 z "},"o":{"ha":729,"x_min":-21,"x_max":758,"o":"m 594 50 q 604 49 600 53 q 604 44 608 44 q 601 42 604 42 l 600 42 l 596 42 l 596 43 q 593 44 594 43 l 593 46 q 594 50 593 49 m 732 594 q 758 448 758 522 q 740 306 758 374 q 690 184 722 239 q 615 94 657 129 q 578 69 596 79 q 578 63 581 65 l 578 56 l 576 56 q 576 50 575 51 q 575 36 579 42 q 572 33 574 33 q 569 31 571 32 q 558 3 558 28 q 560 -14 560 -3 l 560 -17 l 560 -19 l 560 -78 l 560 -86 q 562 -99 561 -92 q 560 -111 563 -106 q 542 -122 554 -122 l 532 -122 q 523 -113 525 -119 q 521 -100 521 -107 l 521 -99 l 521 -96 l 521 -93 l 521 -90 q 519 -87 521 -89 q 519 -83 517 -86 q 515 -67 515 -78 q 517 -46 515 -57 l 517 -39 l 517 -17 l 517 -3 l 517 1 q 514 19 517 15 q 510 15 511 15 l 510 14 l 510 13 l 510 8 q 504 6 507 6 l 503 7 q 499 14 499 8 l 500 15 q 503 17 500 15 l 503 19 l 503 22 l 506 25 q 503 29 506 29 q 438 13 471 18 q 371 7 404 7 q 247 26 304 7 q 92 128 156 58 q 8 290 29 199 q -3 534 -21 421 q 78 718 15 647 q 116 753 94 736 q 167 786 138 771 q 203 846 175 822 q 271 869 232 869 q 471 841 389 869 q 606 771 553 813 q 689 681 660 729 q 732 594 718 633 m 403 593 l 403 592 l 403 593 m 317 229 q 401 222 358 214 q 479 260 443 231 q 511 303 496 274 q 535 368 526 332 q 544 445 544 404 q 531 524 544 486 q 507 567 522 547 q 472 603 492 588 q 465 597 469 599 q 456 569 456 596 l 456 553 l 456 550 l 456 547 q 456 518 456 532 q 457 489 456 504 l 457 482 q 456 456 460 465 q 438 443 451 443 q 429 444 433 443 q 419 453 422 447 q 417 467 417 460 l 417 468 l 417 471 q 418 474 417 472 l 418 476 l 415 479 l 415 483 q 412 499 413 489 q 413 519 411 508 q 413 524 413 522 q 414 528 414 526 l 414 549 l 414 563 l 414 569 q 411 585 414 582 q 406 581 408 582 l 407 581 l 407 579 q 406 575 407 576 q 403 574 404 574 l 403 553 q 403 549 403 550 q 404 544 404 547 q 405 531 404 538 q 403 519 406 524 q 385 507 396 507 q 375 508 379 507 q 366 516 368 508 q 364 531 364 524 q 364 533 361 533 l 364 538 l 364 539 l 364 540 l 363 542 q 361 546 361 543 q 358 561 358 551 q 360 583 358 571 q 361 590 360 589 l 361 604 q 322 601 340 600 q 313 602 318 601 q 306 603 308 603 q 258 593 272 603 q 239 578 243 583 q 206 481 211 546 q 217 338 200 415 q 251 272 225 300 q 317 229 278 243 z "},"p":{"ha":553,"x_min":-151,"x_max":579,"o":"m 454 814 q 538 730 507 781 q 574 615 569 679 q 556 477 579 538 q 491 373 532 417 q 398 301 450 329 q 296 256 346 272 q 335 172 315 197 q 354 135 349 156 q 358 95 360 115 q 345 57 356 75 q 318 25 335 39 q 253 1 288 1 q 171 40 206 1 q 110 153 138 82 q 63 308 83 225 q 31 474 43 390 q 18 624 19 558 q 10 620 14 621 q 1 617 6 619 q -79 618 -39 601 q -135 675 -119 635 q -134 755 -151 715 q -76 811 -117 794 q 40 847 -28 831 q 181 868 108 864 q 326 860 254 872 q 454 814 397 849 m 246 460 q 289 478 267 467 q 328 507 311 490 q 356 547 346 524 q 365 599 367 569 q 343 636 364 625 q 294 654 324 649 q 228 660 264 660 q 230 571 225 624 q 246 460 235 518 z "},"q":{"ha":764,"x_min":-10,"x_max":776,"o":"m 713 196 q 757 160 740 185 q 774 104 774 136 q 744 33 774 63 q 674 4 715 4 q 613 15 643 4 q 556 44 583 26 q 382 6 471 6 q 316 11 350 6 q 250 28 282 17 q 92 128 157 60 q 7 288 28 197 q -8 408 -7 349 q 1 523 -10 468 q 33 625 11 578 q 86 710 54 672 q 128 750 104 729 q 189 786 153 771 q 223 844 196 821 q 286 867 250 867 q 486 838 404 867 q 622 768 568 810 q 705 679 675 726 q 749 593 735 632 q 772 490 767 543 q 771 385 776 436 q 750 285 765 333 q 713 196 735 238 m 203 332 q 241 263 211 293 q 315 217 271 232 q 367 206 343 207 q 358 213 361 211 q 319 278 325 238 q 338 353 313 319 q 402 392 361 386 q 476 374 443 399 q 547 313 510 350 q 573 415 567 357 q 560 525 579 472 q 426 649 529 613 q 388 619 411 629 q 340 611 365 608 l 322 611 q 266 600 285 611 q 236 578 247 589 q 195 474 204 542 q 203 332 186 406 z "},"r":{"ha":593,"x_min":-133,"x_max":608,"o":"m 528 575 q 485 438 522 496 q 529 382 507 414 q 569 308 551 350 q 598 214 588 267 q 608 97 608 161 q 579 28 608 57 q 510 -1 550 -1 q 439 28 468 -1 q 410 97 410 57 q 402 178 410 143 q 383 239 394 213 q 357 282 371 265 q 331 310 343 299 q 208 276 271 285 q 222 198 215 232 q 239 149 229 164 q 250 73 260 113 q 204 13 240 33 q 153 -1 181 -1 q 105 11 128 -1 q 67 47 82 24 q 26 169 42 92 q 3 335 10 247 q -1 511 -3 424 q 8 663 0 599 q -8 658 -3 660 q -49 658 -29 654 q -85 671 -68 661 q -113 697 -101 681 q -129 732 -125 713 q -130 772 -133 753 q -117 808 -126 792 q -91 835 -107 824 q -56 853 -75 847 q 59 869 -7 864 q 194 867 125 874 q 329 841 264 861 q 443 779 394 821 q 510 688 489 740 q 528 575 532 635 m 210 667 q 199 584 201 635 q 197 475 196 533 q 240 487 218 479 q 282 508 263 494 q 314 542 301 522 q 329 589 326 561 q 314 628 331 614 q 270 652 297 643 q 210 667 243 661 z "},"s":{"ha":583,"x_min":-37,"x_max":619,"o":"m 489 453 q 552 406 528 432 q 590 352 576 379 q 608 298 604 325 q 613 249 613 271 q 594 155 611 199 q 546 77 576 111 q 473 21 515 43 q 379 -8 431 -1 q 355 -11 367 -11 q 331 -11 343 -11 q 293 -10 313 -11 q 256 -3 274 -8 l 256 -11 l 256 -12 l 256 -15 q 256 -42 256 -29 q 257 -68 256 -54 l 257 -76 q 258 -87 258 -81 q 256 -99 258 -94 q 239 -110 251 -110 q 231 -108 233 -110 q 222 -101 225 -107 q 221 -89 219 -94 q 219 -87 221 -87 q 221 -85 219 -85 q 221 -82 221 -85 l 221 -79 q 219 -78 221 -78 l 219 -75 q 216 -60 217 -69 q 217 -40 215 -51 q 217 -37 217 -37 q 218 -33 218 -36 l 218 -14 l 218 -1 l 218 4 l 218 6 q 215 7 215 6 q 213 1 215 4 q 207 -3 210 -3 q 197 -29 197 -6 l 197 -44 l 197 -46 l 197 -49 q 197 -76 197 -62 q 199 -101 197 -89 l 199 -108 q 200 -121 200 -115 q 197 -132 200 -126 q 182 -143 193 -143 q 178 -142 181 -143 q 175 -142 176 -142 q 166 -134 168 -140 q 164 -121 164 -128 l 163 -119 q 164 -118 163 -118 l 164 -115 l 164 -114 l 164 -112 l 163 -111 q 161 -107 161 -111 q 158 -94 158 -103 q 158 -74 158 -85 q 160 -71 158 -74 l 160 -68 l 160 -47 l 160 -35 l 160 -29 q 157 -14 160 -17 q 153 -18 157 -18 l 153 -19 l 154 -19 q 153 -25 154 -24 q 151 -26 151 -25 q 149 -26 150 -26 l 147 -25 q 144 -19 142 -25 l 146 -18 q 149 -15 146 -15 q 147 -14 149 -15 l 149 -11 q 150 -8 149 -11 q 146 -1 150 -6 l 143 -1 q 140 0 140 -1 l 140 1 l 139 3 q 138 6 139 4 l 138 13 q 108 3 124 6 q 76 3 93 0 q 13 39 38 7 q -6 111 -12 71 q 8 204 1 164 q 14 246 14 244 q 43 301 19 279 q 101 326 67 324 q 162 311 135 329 q 200 261 189 293 q 224 222 208 239 q 261 196 240 206 q 306 183 282 186 q 350 183 329 179 q 389 196 375 186 q 409 217 403 206 q 417 238 415 228 q 418 253 418 249 q 415 268 418 263 q 396 283 413 274 q 335 306 371 296 q 258 326 299 315 q 163 350 214 336 q 67 390 111 364 q -8 459 22 417 q -37 567 -37 501 q 4 715 -37 647 q 122 826 46 782 q 203 860 161 847 q 288 875 246 872 q 371 871 331 878 q 447 847 411 864 q 536 872 483 883 q 597 831 575 865 q 610 758 619 797 q 603 694 604 735 q 601 621 601 654 q 602 601 601 610 q 601 582 603 592 q 574 517 601 543 q 506 490 546 490 q 438 517 465 490 q 410 582 410 543 q 408 611 408 585 q 396 649 406 638 q 376 667 386 661 q 302 682 347 685 q 218 657 257 679 q 176 624 196 646 q 156 567 156 601 l 156 564 q 176 549 160 556 q 215 535 193 542 q 261 524 238 529 q 303 514 285 518 q 399 490 351 503 q 489 453 447 476 z "},"t":{"ha":729,"x_min":-25,"x_max":742,"o":"m 644 826 q 713 799 685 826 q 742 731 742 771 q 714 663 742 690 q 646 633 686 635 l 635 633 q 534 638 579 633 q 449 647 489 642 q 443 542 446 603 q 441 412 440 482 q 446 265 442 342 q 461 108 450 188 q 442 37 467 68 q 379 0 418 6 q 372 -1 375 0 q 365 -1 368 -1 q 302 22 329 -1 q 271 83 275 46 q 253 256 258 171 q 249 419 249 342 q 251 560 249 496 q 257 672 254 625 q 97 658 188 676 q 24 672 57 650 q -17 732 -8 693 q -3 806 -25 772 q 57 846 18 839 q 163 863 115 858 q 253 865 211 867 q 335 858 296 864 q 413 847 374 853 q 517 832 463 839 q 644 826 572 825 z "},"u":{"ha":667,"x_min":-99,"x_max":678,"o":"m 482 792 q 557 785 521 804 q 604 728 593 767 q 674 344 678 499 q 590 100 669 190 q 552 64 575 82 q 499 32 529 46 q 431 9 469 18 q 343 0 392 0 q 294 3 319 0 q 239 11 268 6 q 58 128 122 32 q -3 319 4 210 q 7 546 -10 428 q -40 558 -18 546 q -76 593 -62 569 q -89 667 -99 628 q -46 728 -79 706 q -19 745 -35 735 q 11 769 -4 756 q 41 796 26 782 q 65 822 56 810 q 121 863 86 853 q 188 857 156 872 q 208 844 196 853 q 229 822 219 836 q 244 785 239 807 q 243 733 249 764 q 238 715 240 725 q 233 690 236 704 q 214 597 226 657 q 194 469 201 536 q 192 338 188 401 q 221 236 196 274 q 244 215 232 222 q 275 204 256 207 q 320 198 296 200 q 367 198 344 196 q 410 207 390 200 q 443 229 431 214 q 463 267 453 240 q 476 343 474 293 q 466 472 478 393 q 418 668 454 551 q 424 744 406 708 q 482 792 443 781 z "},"v":{"ha":613,"x_min":-49,"x_max":643,"o":"m 544 867 q 614 838 585 867 q 643 768 643 808 q 638 676 643 728 q 623 567 632 624 q 601 451 614 510 q 571 338 588 392 q 456 82 519 164 q 308 -1 392 0 l 307 -1 q 244 11 281 -1 q 167 64 207 24 q 81 185 121 110 q 13 356 42 261 q -33 556 -17 450 q -49 768 -49 663 q -19 838 -49 808 q 50 867 10 867 q 119 838 90 867 q 149 768 149 808 q 165 569 149 663 q 204 403 181 476 q 254 278 228 329 q 301 206 281 226 q 341 279 317 226 q 393 432 365 332 q 417 533 407 483 q 433 627 426 583 q 442 707 439 671 q 446 768 446 743 q 475 838 446 808 q 544 867 504 867 z "},"w":{"ha":979,"x_min":-75,"x_max":996,"o":"m 711 833 q 788 851 746 858 q 853 810 829 844 q 929 666 896 749 q 979 494 963 583 q 992 320 996 406 q 958 167 989 235 q 870 53 926 96 q 738 0 814 10 q 474 69 581 -21 q 450 90 460 79 q 415 53 432 67 q 351 14 390 32 q 257 -4 313 -4 q 228 -3 243 -4 q 197 3 214 -1 q 127 29 163 8 q 63 92 92 50 q 15 203 33 135 q -3 375 -3 272 q 3 482 -1 428 q 14 586 7 536 q -57 642 -35 594 q -61 719 -75 681 q -10 776 -47 758 q 30 801 10 786 q 56 824 50 815 q 112 876 75 864 q 181 878 149 889 q 198 869 185 876 q 224 849 211 863 q 245 811 238 835 q 247 753 253 788 q 244 736 246 746 q 240 714 243 726 q 229 649 236 688 q 216 564 222 610 q 205 469 210 518 q 200 374 200 421 q 205 289 200 322 q 216 236 210 256 q 228 208 222 217 q 238 200 235 200 q 270 200 261 196 q 282 207 279 204 q 304 238 294 217 q 319 285 314 260 q 327 338 325 311 q 329 386 329 365 q 356 460 328 429 q 426 492 383 490 q 428 492 428 492 q 431 493 429 493 q 500 465 471 493 q 532 396 529 436 q 536 361 532 383 q 549 314 540 339 q 570 265 557 289 q 604 225 583 242 q 711 200 642 192 q 774 247 754 206 q 791 348 792 289 q 777 469 790 407 q 740 592 764 532 q 686 693 715 651 q 669 769 663 728 q 711 833 676 810 z "},"x":{"ha":661,"x_min":-76,"x_max":686,"o":"m 586 199 q 657 169 628 199 q 686 99 686 140 q 657 28 686 57 q 586 -1 628 -1 q 232 264 410 -1 q 165 172 193 218 q 128 79 138 125 q 93 21 121 43 q 31 -1 65 -1 q 20 -1 25 -1 q 10 0 15 0 q -53 44 -31 10 q -68 118 -76 78 q 5 292 -49 211 q 128 447 58 372 q 83 542 104 494 q 47 634 63 590 q 21 714 31 678 q 11 774 11 750 q 40 844 11 815 q 111 874 69 874 q 181 845 153 874 q 213 776 210 817 q 232 710 215 760 q 281 594 249 661 q 283 598 282 597 q 288 601 285 599 q 348 658 317 629 q 405 713 379 686 q 449 765 431 740 q 475 807 468 789 q 526 864 489 846 q 601 868 563 882 q 660 817 642 854 q 664 740 678 781 q 573 600 639 669 q 424 454 507 531 q 401 433 413 443 q 376 411 389 422 q 447 308 414 349 q 508 242 481 267 q 555 208 535 218 q 586 199 575 199 z "},"y":{"ha":661,"x_min":-39,"x_max":765,"o":"m 718 733 q 758 669 750 710 q 742 596 765 629 q 710 566 729 576 q 669 554 690 556 q 656 451 665 504 q 628 343 646 397 q 584 238 611 289 q 518 144 557 188 q 169 0 386 0 q 157 0 163 0 q 144 1 151 0 q 76 33 104 3 q 49 103 47 63 q 81 172 51 143 q 151 199 111 200 q 340 249 268 193 q 43 364 142 249 q -24 494 -8 424 q -36 629 -39 565 q -21 739 -33 693 q -6 796 -8 785 q 46 853 10 835 q 121 856 82 871 q 178 806 160 842 q 182 731 196 769 q 170 685 176 715 q 162 619 164 654 q 166 551 160 585 q 193 493 172 517 q 290 449 222 457 q 456 456 357 440 q 469 543 465 499 q 475 627 474 588 q 474 699 476 667 q 469 753 472 732 q 485 820 464 789 q 542 861 506 851 q 610 856 578 872 q 657 806 643 839 q 672 779 664 793 q 691 756 679 768 q 718 733 703 743 z "},"z":{"ha":696,"x_min":-100,"x_max":732,"o":"m 719 132 q 725 72 732 103 q 694 19 718 40 q 693 18 694 19 q 689 8 693 8 q 678 -2 681 6 q 676 -21 676 -10 l 676 -36 l 676 -39 q 676 -67 676 -53 q 678 -96 676 -81 q 678 -111 678 -103 q 676 -125 679 -119 q 668 -135 674 -133 q 654 -135 663 -136 q 647 -127 649 -133 q 646 -115 646 -121 q 646 -114 644 -114 l 646 -110 l 646 -108 l 646 -107 l 647 -107 l 646 -107 l 647 -106 l 649 -106 q 647 -104 647 -106 l 646 -106 q 644 -101 640 -106 q 642 -81 640 -94 q 643 -60 643 -67 l 643 -26 q 640 -6 643 -11 q 632 -7 639 -7 l 631 -7 l 628 -7 l 628 -10 q 631 -11 631 -10 q 628 -14 631 -14 q 628 -37 628 -25 q 629 -60 628 -49 l 629 -68 q 628 -90 632 -82 q 611 -103 624 -103 q 604 -101 606 -103 q 594 -94 597 -100 q 592 -81 592 -87 l 592 -79 l 592 -78 q 593 -75 592 -75 l 593 -72 l 590 -69 l 590 -65 q 587 -51 588 -61 q 589 -31 586 -42 l 589 -24 l 589 -4 l 589 1 q 585 3 586 3 q 581 6 583 4 q 497 23 557 18 q 358 26 438 28 q 190 17 279 25 q 19 -3 101 10 q -43 8 -14 -8 q -86 56 -72 25 q -92 120 -100 88 q -57 174 -85 153 q 76 285 8 228 q 207 397 144 342 q 324 504 269 453 q 418 596 379 556 q 306 615 365 604 q 194 636 247 625 q 199 617 197 626 q 203 597 200 607 q 188 522 211 557 q 124 479 164 488 q 49 495 83 472 q 7 558 14 518 q -7 609 3 583 q -28 656 -17 635 q -49 692 -39 676 q -65 715 -60 708 q -85 772 -85 740 q -68 829 -86 803 q -23 868 -51 857 q 36 872 6 879 q 108 858 64 867 q 202 838 151 849 q 308 818 253 828 q 413 799 363 808 q 506 784 464 790 q 576 776 549 778 q 643 753 615 774 q 682 697 671 732 q 686 636 692 668 q 648 558 681 604 q 549 444 615 511 q 372 278 483 378 q 343 252 357 265 q 314 226 329 239 q 401 227 357 228 q 486 224 446 226 q 484 249 485 238 q 486 272 483 261 q 521 340 489 314 q 593 364 553 367 q 661 328 635 360 q 685 254 688 296 q 687 234 685 247 q 694 203 689 221 q 706 167 699 186 q 719 132 713 149 m 715 21 q 719 21 715 25 q 719 19 722 19 q 715 18 717 18 l 715 19 q 714 20 714 19 q 715 21 714 21 z "},"$":{"ha":676,"x_min":19,"x_max":651,"o":"m 571 869 q 630 827 608 860 q 643 757 651 794 q 635 694 636 733 q 633 621 633 656 q 635 603 635 613 q 635 585 635 594 q 606 520 632 547 q 542 493 581 493 q 475 520 503 493 q 446 585 447 547 l 446 613 q 432 653 443 642 q 414 668 421 665 q 394 677 404 675 q 371 681 383 679 l 374 518 q 457 493 414 508 q 535 451 500 478 q 594 383 571 424 q 617 281 617 342 q 599 158 617 210 q 553 72 582 107 q 490 19 525 38 q 417 -6 454 0 q 402 -8 410 -8 q 388 -10 394 -8 l 388 -11 q 378 -34 388 -25 q 356 -44 369 -43 q 332 -35 342 -44 q 322 -11 322 -26 l 321 -1 q 213 46 261 10 q 178 28 197 35 q 139 26 160 22 q 77 63 101 32 q 60 132 53 93 q 66 181 63 158 q 72 224 69 204 q 78 264 75 244 q 107 319 83 297 q 163 343 131 340 q 222 328 194 346 q 261 281 250 310 q 284 235 269 254 q 317 206 299 217 l 313 336 q 302 338 307 338 q 290 342 297 339 q 206 362 253 350 q 117 399 158 374 q 47 464 75 424 q 19 568 19 504 q 60 715 19 649 q 176 824 101 782 q 237 850 206 840 q 300 867 268 860 q 310 888 301 879 q 331 897 319 896 q 353 890 343 897 q 365 871 363 883 q 426 864 396 869 q 483 846 456 858 q 523 868 500 861 q 571 869 546 875 m 208 564 q 248 546 217 553 q 307 532 279 539 l 304 674 q 269 660 286 669 q 228 626 249 647 q 208 568 208 604 l 208 564 m 408 308 q 394 314 401 311 q 378 319 388 317 l 382 181 l 388 181 q 409 195 401 182 q 421 224 417 208 q 426 256 425 240 q 426 281 426 272 q 424 297 426 292 q 408 308 421 301 z "},"":{"ha":760,"x_min":31,"x_max":735,"o":"m 650 393 q 688 378 671 390 q 715 351 704 367 q 730 317 725 335 q 732 283 735 299 q 709 200 728 247 q 655 109 690 153 q 564 33 619 65 q 431 -6 508 0 l 431 -47 q 422 -71 432 -61 q 396 -82 411 -81 l 394 -82 q 371 -72 381 -82 q 361 -47 361 -62 l 360 -6 q 197 63 268 6 q 82 217 125 119 q 42 360 53 285 q 38 508 31 436 q 69 644 44 579 q 136 754 94 708 q 339 863 221 851 l 339 871 q 347 896 338 886 q 372 907 357 906 q 397 897 386 907 q 407 872 407 888 l 407 861 l 414 861 q 468 847 442 857 q 519 825 494 838 q 570 860 539 850 q 633 858 601 869 q 690 808 672 844 q 694 732 708 771 q 692 707 692 722 q 696 675 693 692 q 703 642 699 658 q 713 613 708 625 q 714 537 729 575 q 661 483 699 499 q 585 482 622 467 q 531 535 547 497 q 481 608 513 575 q 411 656 449 640 l 424 193 q 476 214 456 199 q 510 247 497 229 q 528 281 522 264 q 535 308 533 299 q 544 340 538 324 q 563 369 550 357 q 597 389 576 382 q 650 393 618 396 m 264 297 q 299 240 276 268 q 356 199 321 211 l 343 663 q 283 622 315 656 q 249 559 261 597 q 234 476 236 521 q 239 384 232 431 q 264 297 246 338 z "},"":{"ha":744,"x_min":-31,"x_max":722,"o":"m 638 397 q 675 385 658 396 q 703 357 692 374 q 718 322 714 340 q 721 288 722 304 q 695 199 715 250 q 635 103 675 149 q 533 27 594 58 q 383 -4 471 -4 l 376 -4 q 194 56 275 -3 q 67 222 114 115 q 39 304 49 265 l 28 304 q 25 303 28 304 q 2 312 13 303 q -10 336 -8 321 q -1 362 -11 351 q 22 374 8 372 l 25 374 q 22 408 22 390 q 19 442 21 425 l 8 442 l 6 442 q -18 451 -8 442 q -29 474 -28 460 q -22 499 -31 489 q 3 511 -12 510 l 22 513 q 54 651 29 586 q 119 761 79 715 q 249 853 178 826 q 400 868 321 881 q 507 831 456 860 q 558 867 526 857 q 621 865 589 876 q 678 815 660 851 q 682 739 696 778 q 680 714 679 729 q 683 682 681 699 q 691 649 686 665 q 700 619 696 632 q 701 543 717 581 q 649 489 686 506 q 572 488 610 472 q 517 540 533 503 q 453 627 494 590 q 369 671 413 664 q 326 669 351 674 q 269 628 300 664 q 242 584 253 610 q 225 526 232 558 l 336 535 q 363 526 351 536 q 374 501 374 517 q 367 476 376 486 q 342 464 357 467 l 219 456 q 221 422 219 439 q 225 388 222 404 l 357 396 q 383 388 372 397 q 393 364 393 379 q 386 338 396 349 q 361 326 376 328 l 243 318 q 247 310 246 314 q 250 301 247 306 q 296 231 265 265 q 379 194 326 197 l 382 194 q 450 209 424 194 q 492 243 476 224 q 513 283 507 263 q 522 314 519 303 q 531 346 525 329 q 550 375 538 363 q 584 394 563 388 q 638 397 606 401 z "},"*":{"ha":931,"x_min":10,"x_max":893,"o":"m 776 567 q 849 547 817 572 q 888 482 882 522 q 867 409 893 442 q 801 371 842 376 q 788 369 794 369 q 775 369 782 369 q 650 392 718 369 q 708 280 674 333 q 794 182 743 226 q 828 115 825 156 q 804 43 831 75 q 729 8 774 8 q 664 32 694 8 q 519 209 572 111 q 438 403 465 307 q 344 307 392 349 q 258 237 297 265 q 192 194 218 208 q 161 178 165 179 q 86 172 125 160 q 28 221 47 185 q 23 297 10 258 q 72 354 36 335 q 92 366 72 354 q 143 399 113 378 q 211 453 174 421 q 283 528 249 486 q 188 550 219 550 q 117 576 147 547 q 85 646 86 604 q 112 716 83 686 q 182 747 140 746 q 273 736 222 749 q 381 704 324 724 q 390 740 386 722 q 396 776 393 757 q 432 842 401 817 q 503 863 463 867 q 569 828 543 860 q 592 757 596 797 q 591 717 592 756 q 597 619 590 679 q 651 599 624 608 q 703 581 679 589 q 747 569 728 574 q 776 567 765 565 z "},"<":{"ha":450,"x_min":14,"x_max":418,"o":"m 390 649 q 416 578 418 618 q 383 511 414 538 q 269 417 324 456 q 332 355 301 385 q 375 311 363 325 q 403 241 404 282 q 372 172 401 200 q 304 144 344 144 q 233 175 264 144 q 199 209 224 185 q 146 262 175 233 q 90 317 117 290 q 46 358 63 343 q 22 396 29 374 q 17 442 14 418 q 32 483 19 464 q 64 514 44 503 q 80 524 64 514 q 122 553 96 535 q 183 598 149 572 q 251 656 217 624 q 322 681 282 683 q 390 649 363 679 z "},">":{"ha":460,"x_min":6,"x_max":415,"o":"m 364 515 q 396 485 383 504 q 411 442 408 465 q 381 360 415 393 q 336 317 364 344 q 279 262 308 290 q 226 209 250 233 q 192 175 201 185 q 158 152 176 160 q 121 144 140 144 q 84 151 101 144 q 51 171 67 157 q 22 241 22 200 q 49 311 21 282 l 156 418 q 100 461 129 438 q 40 513 71 485 q 8 581 10 540 q 33 651 6 621 q 102 684 61 682 q 174 658 143 686 q 242 601 208 626 q 303 556 276 575 q 347 526 331 538 q 364 515 364 515 z "},"?":{"ha":671,"x_min":-8,"x_max":643,"o":"m 267 129 q 305 122 286 129 q 338 101 324 115 q 365 31 365 69 q 338 -40 365 -10 q 305 -60 324 -53 q 267 -68 286 -68 q 229 -60 247 -68 q 197 -40 211 -53 q 168 31 168 -8 q 197 101 168 68 q 267 129 225 129 m 403 865 q 486 839 443 857 q 564 787 529 821 q 621 699 599 753 q 643 565 643 644 q 626 487 643 521 q 582 427 608 453 q 524 382 556 401 q 464 346 492 363 q 430 328 447 338 q 398 308 413 318 q 374 288 383 297 q 365 268 365 278 l 365 240 q 337 171 365 200 q 267 142 308 142 q 197 171 226 142 q 168 240 168 200 l 168 268 q 188 359 168 319 q 238 428 208 399 q 303 481 268 458 q 368 519 338 503 q 412 545 388 531 q 446 571 436 560 q 428 641 444 621 q 365 671 413 661 q 287 664 329 678 q 219 624 244 650 q 199 590 200 606 q 200 563 197 574 q 202 524 206 543 q 190 488 199 504 q 165 459 181 471 q 129 442 149 447 q 89 440 108 436 q 53 453 69 443 q 24 478 36 463 q 8 515 13 494 q 8 644 -8 582 q 74 760 25 707 q 143 815 104 792 q 225 853 182 839 q 313 870 268 867 q 403 865 358 874 z "},"!":{"ha":294,"x_min":0,"x_max":265,"o":"m 99 129 q 169 101 139 129 q 199 31 199 68 q 169 -40 199 -8 q 136 -60 154 -53 q 99 -68 118 -68 q 61 -60 79 -68 q 29 -40 43 -53 q 0 31 0 -8 q 29 101 0 68 q 61 122 43 115 q 99 129 79 129 m 174 869 q 240 833 214 865 q 260 760 265 800 q 250 684 256 729 q 238 587 244 639 q 226 481 232 535 q 215 378 219 426 q 206 294 210 331 q 201 239 201 257 q 170 172 199 199 q 101 144 142 144 l 99 144 q 29 176 57 147 q 3 247 1 206 q 8 315 4 269 q 19 417 13 361 q 32 533 25 474 q 46 645 39 593 q 58 735 53 697 q 64 785 63 774 q 101 849 69 824 q 174 869 133 875 z "},"#":{"ha":1107,"x_min":4,"x_max":1072,"o":"m 949 660 q 1023 644 989 667 q 1065 582 1057 622 q 1049 508 1072 542 q 986 467 1026 474 q 915 457 951 460 q 838 454 878 454 l 829 454 q 798 397 814 425 q 765 342 782 369 q 835 350 804 344 q 908 334 874 357 q 949 271 942 311 q 949 233 953 251 q 934 198 944 214 q 908 172 924 182 q 871 157 892 161 q 800 147 838 150 q 722 144 763 144 q 683 144 703 144 q 643 147 663 144 q 610 97 625 119 q 590 64 596 74 q 554 16 579 33 q 499 -1 529 -1 q 468 3 482 -1 q 410 53 429 17 q 406 128 392 89 q 425 171 410 143 q 363 181 393 176 q 304 192 332 186 q 286 164 293 176 q 248 104 267 133 q 224 64 229 75 q 187 16 213 33 q 131 -1 161 -1 q 100 3 114 -1 q 42 53 61 17 q 38 128 24 89 q 56 167 43 144 q 93 228 68 189 q 34 258 58 232 q 7 319 10 283 q 31 390 4 360 q 97 425 57 421 q 140 422 115 425 q 208 410 165 419 q 278 529 247 471 q 245 535 260 532 q 224 538 231 538 q 153 563 183 536 q 121 629 124 589 q 146 701 118 669 q 214 735 174 732 q 267 731 235 736 q 363 714 300 725 q 374 749 369 732 q 382 782 379 765 q 424 844 390 822 q 499 858 458 867 q 561 817 539 851 q 575 743 583 783 q 558 678 568 710 q 633 666 594 671 q 710 658 672 661 q 750 782 739 724 q 792 844 758 822 q 867 858 826 867 q 929 817 907 851 q 943 743 951 783 q 933 700 939 722 q 919 654 926 678 q 934 658 926 657 q 949 660 942 658 m 542 353 q 577 410 560 381 q 613 471 594 439 q 546 480 579 475 q 481 490 513 485 q 449 431 465 460 q 415 372 433 401 q 478 362 446 367 q 542 353 510 357 z "},"":{"ha":568,"x_min":-6,"x_max":561,"o":"m 475 876 q 538 835 515 869 q 554 761 561 801 q 506 608 539 688 q 431 452 472 529 q 344 303 389 375 q 261 172 299 231 q 221 110 239 140 q 197 71 203 81 q 160 22 185 39 q 103 4 135 4 q 87 6 94 4 q 71 10 79 7 q 13 58 32 22 q 8 135 -6 94 q 33 188 15 157 q 92 279 51 218 q 166 397 125 331 q 246 532 207 463 q 315 670 285 601 q 357 796 346 739 q 400 862 365 839 q 475 876 435 885 z "},"\\":{"ha":568,"x_min":-6,"x_max":550,"o":"m 454 278 q 488 226 474 247 q 511 188 501 204 q 527 160 521 172 q 538 138 533 147 q 533 61 550 97 q 475 13 515 25 q 460 8 468 10 q 444 7 451 7 q 389 24 414 7 q 354 74 364 42 q 328 113 347 83 q 290 172 310 143 q 208 301 253 231 q 123 448 164 372 q 49 601 82 524 q 1 749 15 678 q 17 823 -6 789 q 79 864 39 857 q 153 850 119 872 q 194 788 186 828 q 235 663 206 731 q 303 526 265 594 q 381 392 340 457 q 454 278 422 328 z "},"/":{"ha":568,"x_min":-6,"x_max":561,"o":"m 475 876 q 538 835 515 869 q 554 761 561 801 q 506 608 539 688 q 431 452 472 529 q 344 303 389 375 q 261 172 299 231 q 221 110 239 140 q 197 71 203 81 q 160 22 185 39 q 103 4 135 4 q 87 6 94 4 q 71 10 79 7 q 13 58 32 22 q 8 135 -6 94 q 33 188 15 157 q 92 279 51 218 q 166 397 125 331 q 246 532 207 463 q 315 670 285 601 q 357 796 346 739 q 400 862 365 839 q 475 876 435 885 z "},".":{"ha":260,"x_min":11,"x_max":210,"o":"m 110 193 q 149 185 131 193 q 181 165 167 178 q 210 93 210 133 q 181 24 210 53 q 110 -6 151 -6 q 40 24 69 -6 q 11 93 11 53 q 40 165 11 133 q 72 185 54 178 q 110 193 90 193 z "},":":{"ha":308,"x_min":11,"x_max":229,"o":"m 119 340 q 163 332 143 340 q 197 310 182 324 q 229 231 229 274 q 221 190 229 210 q 197 156 213 169 q 119 122 164 122 q 44 156 74 122 q 20 190 29 169 q 11 231 11 210 q 44 310 11 274 q 78 332 58 324 q 119 340 97 340 m 119 724 q 197 693 164 724 q 221 658 213 678 q 229 614 229 638 q 221 574 229 594 q 197 538 213 553 q 119 507 164 507 q 44 538 72 507 q 11 614 11 571 q 44 693 11 660 q 119 724 72 724 z "},"":{"ha":1206,"x_min":-21,"x_max":1251,"o":"m 594 50 q 604 49 600 53 q 604 44 608 44 q 601 42 604 42 l 600 42 l 596 42 l 596 43 q 593 44 594 43 l 593 46 q 594 50 593 49 m 732 594 q 758 448 758 522 q 740 306 758 374 q 690 184 722 239 q 615 94 657 129 q 578 69 596 79 q 578 63 581 65 l 578 56 l 576 56 q 576 50 575 51 q 575 36 579 42 q 572 33 574 33 q 569 31 571 32 q 558 3 558 28 q 560 -14 560 -3 l 560 -17 l 560 -19 l 560 -78 l 560 -86 q 562 -99 561 -92 q 560 -111 563 -106 q 542 -122 554 -122 l 532 -122 q 523 -113 525 -119 q 521 -100 521 -107 l 521 -99 l 521 -96 l 521 -93 l 521 -90 q 519 -87 521 -89 q 519 -83 517 -86 q 515 -67 515 -78 q 517 -46 515 -57 l 517 -39 l 517 -17 l 517 -3 l 517 1 q 514 19 517 15 q 510 15 511 15 l 510 14 l 510 13 l 510 8 q 504 6 507 6 l 503 7 q 499 14 499 8 l 500 15 q 503 17 500 15 l 503 19 l 503 22 l 506 25 q 503 29 506 29 q 438 13 471 18 q 371 7 404 7 q 247 26 304 7 q 92 128 156 58 q 8 290 29 199 q -3 534 -21 421 q 78 718 15 647 q 116 753 94 736 q 167 786 138 771 q 203 846 175 822 q 271 869 232 869 q 471 841 389 869 q 606 771 553 813 q 689 681 660 729 q 732 594 718 633 m 403 593 l 403 592 l 403 593 m 317 229 q 401 222 358 214 q 479 260 443 231 q 511 303 496 274 q 535 368 526 332 q 544 445 544 404 q 531 524 544 486 q 507 567 522 547 q 472 603 492 588 q 465 597 469 599 q 456 569 456 596 l 456 553 l 456 550 l 456 547 q 456 518 456 532 q 457 489 456 504 l 457 482 q 456 456 460 465 q 438 443 451 443 q 429 444 433 443 q 419 453 422 447 q 417 467 417 460 l 417 468 l 417 471 q 418 474 417 472 l 418 476 l 415 479 l 415 483 q 412 499 413 489 q 413 519 411 508 q 413 524 413 522 q 414 528 414 526 l 414 549 l 414 563 l 414 569 q 411 585 414 582 q 406 581 408 582 l 407 581 l 407 579 q 406 575 407 576 q 403 574 404 574 l 403 553 q 403 549 403 550 q 404 544 404 547 q 405 531 404 538 q 403 519 406 524 q 385 507 396 507 q 375 508 379 507 q 366 516 368 508 q 364 531 364 524 q 364 533 361 533 l 364 538 l 364 539 l 364 540 l 363 542 q 361 546 361 543 q 358 561 358 551 q 360 583 358 571 q 361 590 360 589 l 361 604 q 322 601 340 600 q 313 602 318 601 q 306 603 308 603 q 258 593 272 603 q 239 578 243 583 q 206 481 211 546 q 217 338 200 415 q 251 272 225 300 q 317 229 278 243 m 1154 478 q 1224 445 1196 475 q 1249 374 1251 415 q 1214 220 1243 286 q 1140 106 1185 154 l 1140 104 l 1140 99 l 1139 99 l 1138 99 q 1139 93 1138 94 q 1138 81 1143 86 q 1132 76 1133 76 q 1122 49 1122 75 l 1122 35 l 1122 32 l 1122 29 l 1122 -25 l 1122 -32 q 1124 -44 1124 -39 q 1122 -56 1125 -50 q 1104 -67 1115 -67 l 1097 -67 q 1088 -58 1090 -64 q 1086 -46 1086 -51 l 1086 -42 q 1088 -39 1086 -40 l 1088 -37 l 1088 -36 q 1085 -35 1086 -36 l 1085 -31 q 1081 -16 1082 -25 q 1082 4 1081 -7 l 1082 11 q 1074 -14 1074 8 l 1074 -31 l 1074 -32 l 1074 -36 l 1074 -90 l 1074 -96 q 1076 -108 1075 -101 q 1074 -121 1076 -115 q 1056 -132 1067 -132 q 1049 -131 1051 -132 q 1040 -123 1042 -129 q 1038 -110 1038 -117 l 1038 -108 l 1038 -107 l 1038 -103 l 1038 -101 l 1038 -100 q 1036 -97 1038 -99 l 1036 -94 q 1033 -81 1033 -90 q 1033 -60 1032 -71 l 1033 -53 l 1033 -33 l 1033 -19 l 1033 -14 q 1032 0 1035 -6 q 1026 -4 1028 -4 l 1028 -4 q 1026 -8 1028 -8 q 1022 -11 1024 -11 q 1019 -10 1021 -11 q 1017 -4 1015 -6 l 1018 -3 q 1021 -1 1018 -3 q 1019 0 1021 -1 l 1021 3 q 1024 6 1021 6 q 1018 13 1024 10 l 1015 13 q 1013 15 1013 14 q 1011 17 1013 15 l 1011 18 q 946 -3 979 3 q 878 -8 913 -8 l 867 -8 q 740 17 797 -7 q 640 83 682 42 q 575 182 599 125 q 551 306 551 239 q 567 390 551 353 q 608 456 582 428 q 586 569 579 507 q 611 685 593 631 q 646 764 625 732 q 690 817 667 796 q 737 849 713 838 q 782 865 761 860 q 881 866 831 876 q 975 832 931 856 q 1012 876 988 860 q 1067 893 1036 893 q 1138 864 1108 893 q 1167 793 1167 835 q 1169 753 1167 775 q 1176 711 1172 732 q 1184 673 1181 690 q 1189 646 1188 656 q 1185 583 1199 614 q 1142 533 1172 551 q 1078 523 1111 518 q 1021 553 1046 528 q 967 601 996 578 q 912 640 939 624 q 863 665 885 657 q 828 671 840 674 q 799 625 814 671 q 791 592 793 606 q 786 568 789 578 l 842 568 q 873 569 857 569 q 907 569 889 569 q 976 542 947 569 q 1007 475 1006 515 q 979 404 1007 433 q 911 372 951 375 q 858 365 886 371 q 805 351 829 360 q 765 331 781 342 q 749 306 749 319 q 760 252 749 274 q 789 217 771 231 q 829 197 807 204 q 874 190 851 190 q 931 199 901 189 q 987 231 961 208 q 1030 292 1013 254 q 1051 386 1047 331 q 1084 453 1054 426 q 1154 478 1114 481 m 1154 93 q 1164 93 1157 96 q 1164 88 1165 89 q 1158 85 1161 85 q 1157 86 1157 85 l 1156 88 q 1153 90 1153 88 l 1153 92 q 1154 93 1153 92 z "},"":{"ha":1097,"x_min":-31,"x_max":1146,"o":"m 594 464 q 631 342 614 401 q 662 235 649 282 q 683 158 675 188 q 690 125 690 128 q 681 51 701 85 q 621 7 660 17 q 545 17 581 -4 q 500 78 510 38 q 495 99 497 89 q 490 121 493 110 q 411 135 451 129 q 331 146 371 142 q 256 151 292 150 q 190 149 219 151 q 180 112 185 129 q 171 76 175 94 q 135 24 163 44 q 76 3 108 3 q 50 7 63 3 q -10 52 10 18 q -19 126 -31 86 q -10 158 -18 128 q 11 235 -3 188 q 42 342 25 282 q 81 465 60 403 q 150 656 118 579 q 212 780 182 733 q 272 847 242 826 q 339 867 303 867 q 406 847 375 867 q 466 780 436 826 q 527 656 496 733 q 594 464 558 578 m 249 347 q 431 332 342 347 q 383 480 407 411 q 339 600 358 549 q 296 487 319 551 q 249 347 272 422 m 1050 483 q 1119 450 1092 481 q 1143 378 1146 419 q 1104 214 1138 285 q 1019 96 1071 143 q 904 25 968 49 q 776 1 840 1 l 765 1 q 642 27 699 3 q 543 93 585 51 q 478 191 501 135 q 454 313 454 247 q 469 396 454 360 q 510 458 483 432 q 490 514 494 485 q 488 572 486 543 q 497 631 490 601 q 513 685 504 660 q 547 764 526 732 q 591 817 568 796 q 638 849 614 838 q 682 865 661 860 q 780 866 731 876 q 875 832 829 856 q 908 876 885 860 q 964 892 932 892 q 1033 863 1004 892 q 1063 793 1063 833 q 1065 755 1063 776 q 1072 713 1068 733 q 1078 674 1075 692 q 1085 647 1082 657 q 1080 585 1093 615 q 1038 539 1067 554 q 976 526 1010 521 q 919 556 943 532 q 866 603 894 581 q 810 643 838 626 q 761 668 783 660 q 726 674 739 676 q 700 628 713 671 q 686 572 689 592 q 713 572 699 571 q 742 572 728 572 q 772 574 757 574 q 806 574 788 574 q 874 546 846 574 q 903 478 901 518 q 876 408 904 438 q 810 378 849 379 q 758 371 786 376 q 706 356 731 365 q 666 336 682 347 q 650 313 650 325 q 661 260 650 282 q 690 225 672 239 q 729 204 707 211 q 772 197 751 197 q 830 206 800 197 q 885 238 860 215 q 927 299 910 261 q 947 390 944 336 q 980 459 950 432 q 1050 483 1010 486 z "},"":{"ha":729,"x_min":-21,"x_max":758,"o":"m 594 50 q 604 49 600 53 q 604 44 608 44 q 601 42 604 42 l 600 42 l 596 42 l 596 43 q 593 44 594 43 l 593 46 q 594 50 593 49 m 732 594 q 758 448 758 522 q 740 306 758 374 q 690 184 722 239 q 615 94 657 129 q 578 69 596 79 q 578 63 581 65 l 578 56 l 576 56 q 576 50 575 51 q 575 36 579 42 q 572 33 574 33 q 569 31 571 32 q 558 3 558 28 q 560 -14 560 -3 l 560 -17 l 560 -19 l 560 -78 l 560 -86 q 562 -99 561 -92 q 560 -111 563 -106 q 542 -122 554 -122 l 532 -122 q 523 -113 525 -119 q 521 -100 521 -107 l 521 -99 l 521 -96 l 521 -93 l 521 -90 q 519 -87 521 -89 q 519 -83 517 -86 q 515 -67 515 -78 q 517 -46 515 -57 l 517 -39 l 517 -17 l 517 -3 l 517 1 q 514 19 517 15 q 510 15 511 15 l 510 14 l 510 13 l 510 8 q 504 6 507 6 l 503 7 q 499 14 499 8 l 500 15 q 503 17 500 15 l 503 19 l 503 22 l 506 25 q 503 29 506 29 q 438 13 471 18 q 371 7 404 7 q 247 26 304 7 q 92 128 156 58 q 8 290 29 199 q -3 534 -21 421 q 78 718 15 647 q 116 753 94 736 q 167 786 138 771 q 203 846 175 822 q 271 869 232 869 q 471 841 389 869 q 606 771 553 813 q 689 681 660 729 q 732 594 718 633 m 403 593 l 403 592 l 403 593 m 317 229 q 401 222 358 214 q 479 260 443 231 q 511 303 496 274 q 535 368 526 332 q 544 445 544 404 q 531 524 544 486 q 507 567 522 547 q 472 603 492 588 q 465 597 469 599 q 456 569 456 596 l 456 553 l 456 550 l 456 547 q 456 518 456 532 q 457 489 456 504 l 457 482 q 456 456 460 465 q 438 443 451 443 q 429 444 433 443 q 419 453 422 447 q 417 467 417 460 l 417 468 l 417 471 q 418 474 417 472 l 418 476 l 415 479 l 415 483 q 412 499 413 489 q 413 519 411 508 q 413 524 413 522 q 414 528 414 526 l 414 549 l 414 563 l 414 569 q 411 585 414 582 q 406 581 408 582 l 407 581 l 407 579 q 406 575 407 576 q 403 574 404 574 l 403 553 q 403 549 403 550 q 404 544 404 547 q 405 531 404 538 q 403 519 406 524 q 385 507 396 507 q 375 508 379 507 q 366 516 368 508 q 364 531 364 524 q 364 533 361 533 l 364 538 l 364 539 l 364 540 l 363 542 q 361 546 361 543 q 358 561 358 551 q 360 583 358 571 q 361 590 360 589 l 361 604 q 322 601 340 600 q 313 602 318 601 q 306 603 308 603 q 258 593 272 603 q 239 578 243 583 q 206 481 211 546 q 217 338 200 415 q 251 272 225 300 q 317 229 278 243 m 563 876 q 626 835 603 869 q 642 761 649 801 q 593 608 626 688 q 518 452 560 529 q 431 303 476 375 q 349 172 386 231 q 308 110 326 140 q 285 71 290 81 q 247 22 272 39 q 190 4 222 4 q 174 6 182 4 q 158 10 167 7 q 101 58 119 22 q 96 135 82 94 q 121 188 103 157 q 179 279 139 218 q 253 397 213 331 q 333 532 294 463 q 403 670 372 601 q 444 796 433 739 q 488 862 453 839 q 563 876 522 885 z "},"":{"ha":1132,"x_min":-33,"x_max":1136,"o":"m 693 113 q 688 50 701 81 q 646 3 674 19 q 651 1 649 3 q 651 -1 654 1 q 646 -3 650 -3 l 644 -3 l 643 -3 q 642 0 642 -1 l 642 1 q 626 -6 635 -3 q 625 -7 626 -7 q 619 -11 622 -11 q 610 -31 610 -11 q 610 -36 610 -33 q 611 -42 611 -39 l 611 -43 l 611 -44 q 610 -65 611 -56 q 611 -85 610 -74 q 612 -87 611 -86 q 613 -90 613 -89 q 613 -98 613 -93 q 611 -107 614 -103 q 593 -115 607 -115 q 588 -114 589 -115 q 578 -109 581 -114 q 576 -99 576 -104 l 576 -96 l 576 -94 l 576 -93 l 576 -92 q 575 -90 576 -92 q 575 -89 575 -90 q 572 -78 572 -86 q 572 -62 571 -71 l 572 -58 l 572 -43 l 572 -35 l 572 -31 q 571 -18 572 -22 q 565 -22 568 -22 l 567 -22 l 567 -24 q 565 -26 567 -25 q 561 -28 565 -28 l 560 -28 q 557 -22 556 -25 l 558 -22 q 561 -21 558 -22 q 560 -18 560 -19 l 561 -18 q 563 -14 561 -15 l 561 -12 q 559 -11 560 -11 q 557 -10 558 -11 l 554 -10 q 551 -7 551 -7 l 551 -6 q 550 -3 550 -6 l 550 1 q 543 3 547 3 l 542 3 l 540 3 q 539 7 539 4 q 499 64 510 28 q 494 86 496 75 q 489 108 492 97 q 326 135 410 126 q 183 136 243 143 q 174 100 178 118 q 165 63 169 82 q 130 9 157 29 q 69 -11 103 -11 q 43 -7 56 -11 q 7 9 22 -3 q -18 38 -8 21 q -31 74 -28 54 q -28 114 -33 93 q -18 147 -26 117 q 3 224 -10 176 q 35 333 17 272 q 75 458 54 394 q 144 651 113 574 q 206 777 175 729 q 268 845 236 825 q 336 865 300 865 q 403 845 372 865 q 465 777 435 825 q 526 651 494 729 q 594 458 557 574 q 633 333 615 393 q 663 224 650 272 q 684 146 676 176 q 693 113 692 115 m 244 338 q 340 333 293 338 q 429 324 386 329 q 381 473 406 403 q 335 594 356 543 q 292 480 315 546 q 244 338 268 414 m 1039 478 q 1108 445 1081 475 q 1133 374 1136 415 q 1099 220 1128 286 q 1025 106 1069 154 l 1025 104 l 1025 99 l 1024 99 l 1022 99 q 1024 93 1022 94 q 1022 81 1028 86 q 1017 76 1018 76 q 1007 49 1007 75 l 1007 35 l 1007 32 l 1007 29 l 1007 -25 l 1007 -32 q 1009 -44 1008 -39 q 1007 -56 1010 -50 q 989 -67 1000 -67 l 982 -67 q 973 -58 975 -64 q 971 -46 971 -51 l 971 -42 q 972 -39 971 -40 l 972 -37 l 972 -36 q 969 -35 971 -36 l 969 -31 q 966 -16 967 -25 q 967 4 965 -7 l 967 11 q 958 -14 958 8 l 958 -31 l 958 -32 l 958 -36 l 958 -90 l 958 -96 q 960 -108 960 -101 q 958 -121 961 -115 q 940 -132 951 -132 q 933 -131 936 -132 q 924 -123 926 -129 q 922 -110 922 -117 l 922 -108 l 922 -107 l 922 -103 l 922 -101 l 922 -100 q 921 -97 922 -99 l 921 -94 q 917 -81 918 -90 q 918 -60 917 -71 l 918 -53 l 918 -33 l 918 -19 l 918 -14 q 917 0 919 -6 q 911 -4 913 -4 l 913 -4 q 911 -8 913 -8 q 907 -11 908 -11 q 904 -10 906 -11 q 901 -4 900 -6 l 903 -3 q 906 -1 903 -3 q 904 0 906 -1 l 906 3 q 908 6 906 6 q 903 13 908 10 l 900 13 q 897 15 897 14 q 896 17 897 15 l 896 18 q 831 -3 864 3 q 763 -8 797 -8 l 751 -8 q 624 17 682 -7 q 525 83 567 42 q 460 182 483 125 q 436 306 436 239 q 451 390 436 353 q 493 456 467 428 q 471 569 464 507 q 496 685 478 631 q 531 764 510 732 q 574 817 551 796 q 622 849 597 838 q 667 865 646 860 q 765 866 715 876 q 860 832 815 856 q 897 876 872 860 q 951 893 921 893 q 1022 864 993 893 q 1051 793 1051 835 q 1054 753 1051 775 q 1061 711 1057 732 q 1069 673 1065 690 q 1074 646 1072 656 q 1070 583 1083 614 q 1026 533 1057 551 q 963 523 996 518 q 906 553 931 528 q 852 601 881 578 q 797 640 824 624 q 747 665 769 657 q 713 671 725 674 q 683 625 699 671 q 676 592 678 606 q 671 568 674 578 l 726 568 q 758 569 742 569 q 792 569 774 569 q 861 542 832 569 q 892 475 890 515 q 864 404 892 433 q 796 372 836 375 q 742 365 771 371 q 690 351 714 360 q 649 331 665 342 q 633 306 633 319 q 644 252 633 274 q 674 217 656 231 q 714 197 692 204 q 758 190 736 190 q 816 199 786 189 q 872 231 846 208 q 915 292 897 254 q 936 386 932 331 q 969 453 939 426 q 1039 478 999 481 m 1039 93 q 1049 93 1042 96 q 1049 88 1050 89 q 1043 85 1046 85 q 1042 86 1042 85 l 1040 88 q 1038 90 1038 88 l 1038 92 q 1039 93 1038 92 z "},"":{"ha":671,"x_min":-14,"x_max":636,"o":"m 363 690 q 324 697 343 690 q 292 718 306 704 q 264 789 264 750 q 292 860 264 829 q 324 880 306 872 q 363 887 343 887 q 400 880 382 887 q 432 860 418 872 q 461 789 461 828 q 432 718 461 751 q 363 690 404 690 m 226 -46 q 143 -19 186 -37 q 65 33 100 -1 q 8 121 31 67 q -14 254 -14 175 q 4 333 -14 299 q 47 392 21 367 q 106 438 74 418 q 165 474 138 457 q 199 492 182 482 q 231 512 217 501 q 255 532 246 522 q 264 551 264 542 l 264 579 q 292 649 264 619 q 363 678 321 678 q 432 649 403 678 q 461 579 461 619 l 461 551 q 441 460 461 500 q 391 391 421 421 q 326 339 361 361 q 261 300 292 317 q 217 274 242 289 q 183 249 193 260 q 201 179 185 199 q 264 149 217 158 q 342 156 300 142 q 410 196 385 169 q 431 230 429 214 q 429 257 432 246 q 427 296 424 276 q 440 332 431 315 q 465 360 449 349 q 500 378 481 372 q 540 380 521 383 q 576 367 560 376 q 605 341 593 357 q 621 304 617 325 q 621 175 637 238 q 556 60 604 113 q 486 4 525 28 q 404 -33 447 -19 q 316 -51 361 -47 q 226 -46 271 -54 z "},"":{"ha":294,"x_min":0,"x_max":265,"o":"m 99 679 q 169 707 139 679 q 199 778 199 740 q 169 849 199 817 q 136 869 154 861 q 99 876 118 876 q 61 869 79 876 q 29 849 43 861 q 0 778 0 817 q 29 707 0 740 q 61 686 43 693 q 99 679 79 679 m 174 -61 q 240 -24 214 -57 q 260 49 265 8 q 250 124 256 79 q 238 222 244 169 q 226 328 232 274 q 215 430 219 382 q 206 515 210 478 q 201 569 201 551 q 170 637 199 610 q 101 664 142 664 l 99 664 q 29 632 57 661 q 3 561 1 603 q 8 493 4 539 q 19 391 13 447 q 32 275 25 335 q 46 163 39 215 q 58 73 53 111 q 64 24 63 35 q 101 -41 69 -15 q 174 -61 133 -67 z "},"":{"ha":729,"x_min":-21,"x_max":756,"o":"m 269 865 q 469 837 388 865 q 603 767 550 808 q 686 678 657 725 q 729 592 715 631 q 755 446 754 519 q 737 306 756 372 q 685 183 718 239 q 611 94 653 128 q 497 28 558 50 q 368 7 435 7 q 246 26 303 7 q 92 128 154 58 q 8 289 29 197 q -2 531 -21 418 q 78 715 17 644 q 115 751 93 733 q 165 782 138 768 q 203 842 174 818 q 269 865 232 865 m 476 258 q 508 301 493 272 q 533 367 524 331 q 542 443 542 403 q 528 521 542 483 q 408 633 501 601 q 369 606 393 615 q 321 599 346 596 q 312 599 317 599 q 303 600 307 600 q 257 590 271 600 q 238 575 243 581 q 204 478 210 543 q 215 336 199 413 q 250 270 224 299 q 315 228 276 242 q 399 222 357 214 q 476 258 440 231 m 563 876 q 626 835 603 869 q 642 761 649 801 q 593 608 626 688 q 518 452 560 529 q 431 303 476 375 q 349 172 386 231 q 308 110 326 140 q 285 71 290 81 q 247 22 272 39 q 190 4 222 4 q 174 6 182 4 q 158 10 167 7 q 101 58 119 22 q 96 135 82 94 q 121 188 103 157 q 179 279 139 218 q 253 397 213 331 q 333 532 294 463 q 403 670 372 601 q 444 796 433 739 q 488 862 453 839 q 563 876 522 885 z "},"":{"ha":1206,"x_min":-21,"x_max":1244,"o":"m 269 865 q 469 837 388 865 q 603 767 550 808 q 686 678 657 725 q 729 592 715 631 q 755 446 754 519 q 737 306 756 372 q 685 183 718 239 q 611 94 653 128 q 497 28 558 50 q 368 7 435 7 q 246 26 303 7 q 92 128 154 58 q 8 289 29 197 q -2 531 -21 418 q 78 715 17 644 q 115 751 93 733 q 165 782 138 768 q 203 842 174 818 q 269 865 232 865 m 476 258 q 508 301 493 272 q 533 367 524 331 q 542 443 542 403 q 528 521 542 483 q 408 633 501 601 q 369 606 393 615 q 321 599 346 596 q 312 599 317 599 q 303 600 307 600 q 257 590 271 600 q 238 575 243 581 q 204 478 210 543 q 215 336 199 413 q 250 270 224 299 q 315 228 276 242 q 399 222 357 214 q 476 258 440 231 m 1149 483 q 1217 450 1190 481 q 1242 378 1244 419 q 1203 214 1236 285 q 1118 96 1169 143 q 1003 25 1067 49 q 875 1 939 1 l 864 1 q 740 27 797 3 q 642 93 683 51 q 576 191 600 135 q 553 313 553 247 q 567 396 553 360 q 608 458 582 432 q 589 514 593 485 q 587 572 585 543 q 596 631 589 601 q 611 685 603 660 q 646 764 625 732 q 690 817 667 796 q 736 849 713 838 q 781 865 760 860 q 878 866 829 876 q 974 832 928 856 q 1007 876 983 860 q 1063 892 1031 892 q 1132 863 1103 892 q 1161 793 1161 833 q 1164 755 1161 776 q 1170 713 1167 733 q 1177 674 1174 692 q 1183 647 1181 657 q 1178 585 1192 615 q 1136 539 1165 554 q 1075 526 1108 521 q 1018 556 1042 532 q 965 603 993 581 q 909 643 936 626 q 860 668 882 660 q 825 674 838 676 q 799 628 811 671 q 785 572 788 592 q 812 572 797 571 q 840 572 826 572 q 871 574 856 574 q 904 574 886 574 q 972 546 944 574 q 1001 478 1000 518 q 975 408 1003 438 q 908 378 947 379 q 857 371 885 376 q 805 356 829 365 q 765 336 781 347 q 749 313 749 325 q 760 260 749 282 q 788 225 771 239 q 828 204 806 211 q 871 197 850 197 q 928 206 899 197 q 983 238 958 215 q 1026 299 1008 261 q 1046 390 1043 336 q 1078 459 1049 432 q 1149 483 1108 486 z "},"":{"ha":347,"x_min":6,"x_max":328,"o":"m 185 750 q 165 767 168 750 q 160 842 160 800 q 167 906 160 883 q 175 919 169 915 q 188 924 181 922 q 206 917 194 925 q 240 867 217 910 q 274 912 260 906 q 293 918 288 918 q 311 910 303 918 q 326 852 324 894 q 326 769 328 810 q 306 750 324 750 q 292 756 297 750 q 286 771 286 763 q 288 821 288 794 q 285 864 288 847 q 260 813 271 843 q 240 800 254 803 q 222 813 228 800 q 212 835 218 824 q 200 857 206 846 q 200 815 199 838 q 204 774 201 793 q 201 759 207 765 q 189 750 196 753 l 185 750 m 57 883 q 44 883 50 883 q 31 881 38 882 q 17 883 24 878 q 8 896 10 888 q 10 910 6 903 q 24 919 15 917 q 50 923 39 922 q 72 922 61 924 q 86 925 81 925 q 99 918 96 922 q 117 916 108 917 q 138 915 126 915 q 153 909 147 915 q 158 896 158 903 q 153 881 158 888 q 139 875 147 875 l 136 875 q 121 876 128 875 q 107 876 114 876 q 104 832 104 860 q 108 774 104 804 q 105 756 111 764 q 88 746 99 749 l 85 746 q 60 768 63 746 q 55 833 54 801 q 57 883 56 864 z "},"":{"ha":314,"x_min":8,"x_max":289,"o":"m 206 858 q 203 844 206 850 q 197 831 200 838 q 213 806 206 822 q 221 765 221 790 q 201 746 221 746 q 187 751 193 746 q 181 765 181 757 q 176 792 181 783 q 167 807 172 801 q 156 803 161 804 q 143 799 150 801 q 150 775 146 782 q 142 749 157 757 q 132 746 139 746 q 115 756 119 746 q 107 779 110 764 q 103 811 104 794 q 101 845 101 828 q 103 875 101 863 l 101 875 q 86 876 93 872 q 76 889 79 881 q 78 903 74 896 q 92 913 83 910 q 140 915 111 917 q 189 899 169 914 q 206 858 207 882 m 167 861 q 164 868 167 865 q 143 875 157 875 q 141 859 142 868 q 140 839 140 850 q 156 846 149 842 q 167 861 164 850 m 149 969 q 203 958 178 969 q 248 928 229 947 q 278 883 267 908 q 289 828 289 857 q 278 774 289 799 q 248 729 267 749 q 203 699 229 710 q 149 688 178 688 q 94 699 119 688 q 50 729 69 710 q 19 774 31 749 q 8 828 8 799 q 19 883 8 857 q 50 928 31 908 q 94 958 69 947 q 149 969 119 969 m 149 718 q 226 751 194 718 q 258 828 258 783 q 226 906 258 874 q 149 939 194 939 q 70 906 103 939 q 38 828 38 874 q 70 751 38 783 q 149 718 103 718 z "},"-":{"ha":622,"x_min":-19,"x_max":650,"o":"m 590 461 q 635 415 621 450 q 640 340 650 379 q 604 283 632 301 q 546 276 576 264 q 533 279 543 278 q 513 282 524 281 q 483 285 499 285 q 449 285 467 285 q 358 282 407 285 q 260 276 310 279 q 163 270 211 274 q 76 267 115 267 q 56 268 63 267 q 2 297 24 268 q -19 367 -19 326 q 4 435 -18 407 q 58 461 26 464 l 76 461 q 157 464 111 461 q 253 470 203 467 q 353 476 303 474 q 449 479 403 479 q 488 478 469 479 q 524 476 507 478 q 558 471 543 474 q 590 461 574 468 z "},"_":{"ha":0,"x_min":-590,"x_max":1839,"o":"m 1832 -174 q 1815 -247 1839 -214 q 1751 -287 1792 -281 q 1633 -301 1693 -297 q 1507 -304 1572 -304 q 1151 -283 1338 -304 q 774 -236 965 -262 q 394 -190 581 -211 q 36 -169 207 -169 q -228 -188 -107 -169 q -442 -251 -350 -207 q -517 -254 -479 -268 q -572 -203 -556 -240 q -576 -127 -590 -165 q -525 -72 -561 -89 q -259 6 -400 -15 q 36 26 -118 26 q 414 5 221 26 q 800 -42 607 -17 q 1172 -88 993 -68 q 1507 -108 1351 -108 q 1619 -105 1565 -108 q 1719 -93 1672 -101 q 1792 -110 1760 -86 q 1832 -174 1825 -133 z "}," ":{"ha":314,"x_min":0,"x_max":0,"o":""}}}
